<svg xmlns="http://www.w3.org/2000/svg" width="600" height="800" viewBox="0 0 600 800">
<defs>
  <radialGradient id="vg" cx="0.5" cy="0.42" r="0.75">
    <stop offset="0" stop-color="#241d15" stop-opacity="0.95"/>
    <stop offset="1" stop-color="#14100c" stop-opacity="0"/>
  </radialGradient>
</defs>
<rect width="600" height="800" fill="#15110d"/>
<rect width="600" height="800" fill="url(#vg)"/>
<g fill="none" stroke="#c9a86a" stroke-width="1.6" opacity="0.07" stroke-linecap="round">
<path d="M30 130 h26 a8 8 0 1 0 0 13 a6 6 0 1 1 -13 0"/>
<path d="M86 130 h21 a7 7 0 1 0 0 10 a5 5 0 1 1 -10 0"/>
<path d="M137 130 h27 a9 9 0 1 0 0 13 a6 6 0 1 1 -13 0"/>
<path d="M194 130 h17 a5 5 0 1 0 0 8 a4 4 0 1 1 -8 0"/>
<path d="M241 130 h26 a8 8 0 1 0 0 13 a6 6 0 1 1 -13 0"/>
<path d="M297 130 h20 a6 6 0 1 0 0 10 a5 5 0 1 1 -10 0"/>
<path d="M347 130 h23 a7 7 0 1 0 0 11 a5 5 0 1 1 -11 0"/>
<path d="M400 130 h26 a8 8 0 1 0 0 13 a6 6 0 1 1 -13 0"/>
<path d="M456 130 h25 a8 8 0 1 0 0 12 a6 6 0 1 1 -12 0"/>
<path d="M511 130 h20 a6 6 0 1 0 0 10 a5 5 0 1 1 -10 0"/>
<path d="M64 200 h16 a5 5 0 1 0 0 8 a4 4 0 1 1 -8 0"/>
<path d="M110 200 h23 a7 7 0 1 0 0 11 a5 5 0 1 1 -11 0"/>
<path d="M163 200 h23 a7 7 0 1 0 0 11 a5 5 0 1 1 -11 0"/>
<path d="M216 200 h21 a7 7 0 1 0 0 10 a5 5 0 1 1 -10 0"/>
<path d="M267 200 h26 a8 8 0 1 0 0 13 a6 6 0 1 1 -13 0"/>
<path d="M323 200 h23 a7 7 0 1 0 0 11 a5 5 0 1 1 -11 0"/>
<path d="M376 200 h16 a5 5 0 1 0 0 8 a4 4 0 1 1 -8 0"/>
<path d="M422 200 h16 a5 5 0 1 0 0 8 a4 4 0 1 1 -8 0"/>
<path d="M468 200 h24 a8 8 0 1 0 0 12 a6 6 0 1 1 -12 0"/>
<path d="M522 200 h18 a6 6 0 1 0 0 9 a4 4 0 1 1 -9 0"/>
<path d="M30 270 h21 a7 7 0 1 0 0 10 a5 5 0 1 1 -10 0"/>
<path d="M81 270 h19 a6 6 0 1 0 0 9 a4 4 0 1 1 -9 0"/>
<path d="M130 270 h20 a6 6 0 1 0 0 10 a5 5 0 1 1 -10 0"/>
<path d="M180 270 h25 a8 8 0 1 0 0 12 a6 6 0 1 1 -12 0"/>
<path d="M235 270 h19 a6 6 0 1 0 0 9 a4 4 0 1 1 -9 0"/>
<path d="M284 270 h26 a8 8 0 1 0 0 13 a6 6 0 1 1 -13 0"/>
<path d="M340 270 h19 a6 6 0 1 0 0 9 a4 4 0 1 1 -9 0"/>
<path d="M389 270 h25 a8 8 0 1 0 0 12 a6 6 0 1 1 -12 0"/>
<path d="M444 270 h17 a5 5 0 1 0 0 8 a4 4 0 1 1 -8 0"/>
<path d="M491 270 h17 a5 5 0 1 0 0 8 a4 4 0 1 1 -8 0"/>
<path d="M538 270 h18 a6 6 0 1 0 0 9 a4 4 0 1 1 -9 0"/>
<path d="M64 340 h17 a5 5 0 1 0 0 8 a4 4 0 1 1 -8 0"/>
<path d="M111 340 h27 a9 9 0 1 0 0 13 a6 6 0 1 1 -13 0"/>
<path d="M168 340 h21 a7 7 0 1 0 0 10 a5 5 0 1 1 -10 0"/>
<path d="M219 340 h22 a7 7 0 1 0 0 11 a5 5 0 1 1 -11 0"/>
<path d="M271 340 h19 a6 6 0 1 0 0 9 a4 4 0 1 1 -9 0"/>
<path d="M320 340 h16 a5 5 0 1 0 0 8 a4 4 0 1 1 -8 0"/>
<path d="M366 340 h23 a7 7 0 1 0 0 11 a5 5 0 1 1 -11 0"/>
<path d="M419 340 h25 a8 8 0 1 0 0 12 a6 6 0 1 1 -12 0"/>
<path d="M474 340 h22 a7 7 0 1 0 0 11 a5 5 0 1 1 -11 0"/>
<path d="M526 340 h18 a6 6 0 1 0 0 9 a4 4 0 1 1 -9 0"/>
<path d="M30 410 h16 a5 5 0 1 0 0 8 a4 4 0 1 1 -8 0"/>
<path d="M76 410 h17 a5 5 0 1 0 0 8 a4 4 0 1 1 -8 0"/>
<path d="M123 410 h25 a8 8 0 1 0 0 12 a6 6 0 1 1 -12 0"/>
<path d="M178 410 h19 a6 6 0 1 0 0 9 a4 4 0 1 1 -9 0"/>
<path d="M227 410 h17 a5 5 0 1 0 0 8 a4 4 0 1 1 -8 0"/>
<path d="M274 410 h27 a9 9 0 1 0 0 13 a6 6 0 1 1 -13 0"/>
<path d="M331 410 h22 a7 7 0 1 0 0 11 a5 5 0 1 1 -11 0"/>
<path d="M383 410 h26 a8 8 0 1 0 0 13 a6 6 0 1 1 -13 0"/>
<path d="M439 410 h24 a8 8 0 1 0 0 12 a6 6 0 1 1 -12 0"/>
<path d="M493 410 h18 a6 6 0 1 0 0 9 a4 4 0 1 1 -9 0"/>
<path d="M541 410 h22 a7 7 0 1 0 0 11 a5 5 0 1 1 -11 0"/>
<path d="M64 480 h24 a8 8 0 1 0 0 12 a6 6 0 1 1 -12 0"/>
<path d="M118 480 h25 a8 8 0 1 0 0 12 a6 6 0 1 1 -12 0"/>
<path d="M173 480 h24 a8 8 0 1 0 0 12 a6 6 0 1 1 -12 0"/>
<path d="M227 480 h17 a5 5 0 1 0 0 8 a4 4 0 1 1 -8 0"/>
<path d="M274 480 h24 a8 8 0 1 0 0 12 a6 6 0 1 1 -12 0"/>
<path d="M328 480 h26 a8 8 0 1 0 0 13 a6 6 0 1 1 -13 0"/>
<path d="M384 480 h25 a8 8 0 1 0 0 12 a6 6 0 1 1 -12 0"/>
<path d="M439 480 h24 a8 8 0 1 0 0 12 a6 6 0 1 1 -12 0"/>
<path d="M493 480 h26 a8 8 0 1 0 0 13 a6 6 0 1 1 -13 0"/>
<path d="M549 480 h22 a7 7 0 1 0 0 11 a5 5 0 1 1 -11 0"/>
<path d="M30 550 h25 a8 8 0 1 0 0 12 a6 6 0 1 1 -12 0"/>
<path d="M85 550 h26 a8 8 0 1 0 0 13 a6 6 0 1 1 -13 0"/>
<path d="M141 550 h21 a7 7 0 1 0 0 10 a5 5 0 1 1 -10 0"/>
<path d="M192 550 h24 a8 8 0 1 0 0 12 a6 6 0 1 1 -12 0"/>
<path d="M246 550 h24 a8 8 0 1 0 0 12 a6 6 0 1 1 -12 0"/>
<path d="M300 550 h27 a9 9 0 1 0 0 13 a6 6 0 1 1 -13 0"/>
<path d="M357 550 h22 a7 7 0 1 0 0 11 a5 5 0 1 1 -11 0"/>
<path d="M409 550 h18 a6 6 0 1 0 0 9 a4 4 0 1 1 -9 0"/>
<path d="M457 550 h18 a6 6 0 1 0 0 9 a4 4 0 1 1 -9 0"/>
<path d="M505 550 h17 a5 5 0 1 0 0 8 a4 4 0 1 1 -8 0"/>
<path d="M552 550 h23 a7 7 0 1 0 0 11 a5 5 0 1 1 -11 0"/>
<path d="M64 620 h22 a7 7 0 1 0 0 11 a5 5 0 1 1 -11 0"/>
<path d="M116 620 h27 a9 9 0 1 0 0 13 a6 6 0 1 1 -13 0"/>
<path d="M173 620 h27 a9 9 0 1 0 0 13 a6 6 0 1 1 -13 0"/>
<path d="M230 620 h21 a7 7 0 1 0 0 10 a5 5 0 1 1 -10 0"/>
<path d="M281 620 h23 a7 7 0 1 0 0 11 a5 5 0 1 1 -11 0"/>
<path d="M334 620 h20 a6 6 0 1 0 0 10 a5 5 0 1 1 -10 0"/>
<path d="M384 620 h17 a5 5 0 1 0 0 8 a4 4 0 1 1 -8 0"/>
<path d="M431 620 h19 a6 6 0 1 0 0 9 a4 4 0 1 1 -9 0"/>
<path d="M480 620 h22 a7 7 0 1 0 0 11 a5 5 0 1 1 -11 0"/>
<path d="M532 620 h22 a7 7 0 1 0 0 11 a5 5 0 1 1 -11 0"/>
<path d="M30 690 h20 a6 6 0 1 0 0 10 a5 5 0 1 1 -10 0"/>
<path d="M80 690 h24 a8 8 0 1 0 0 12 a6 6 0 1 1 -12 0"/>
<path d="M134 690 h23 a7 7 0 1 0 0 11 a5 5 0 1 1 -11 0"/>
<path d="M187 690 h26 a8 8 0 1 0 0 13 a6 6 0 1 1 -13 0"/>
<path d="M243 690 h26 a8 8 0 1 0 0 13 a6 6 0 1 1 -13 0"/>
<path d="M299 690 h20 a6 6 0 1 0 0 10 a5 5 0 1 1 -10 0"/>
<path d="M349 690 h18 a6 6 0 1 0 0 9 a4 4 0 1 1 -9 0"/>
<path d="M397 690 h27 a9 9 0 1 0 0 13 a6 6 0 1 1 -13 0"/>
<path d="M454 690 h27 a9 9 0 1 0 0 13 a6 6 0 1 1 -13 0"/>
<path d="M511 690 h18 a6 6 0 1 0 0 9 a4 4 0 1 1 -9 0"/>
<path d="M559 690 h19 a6 6 0 1 0 0 9 a4 4 0 1 1 -9 0"/>
</g>
<g fill="none" stroke="#a08a52" opacity="0.55" stroke-width="1.6">
  <rect x="20" y="20" width="560" height="760"/>
</g>
<g fill="none" stroke="#a08a52" opacity="0.22" stroke-width="1">
  <rect x="30" y="30" width="540" height="740"/>
</g>
<g fill="none" stroke="#a08a52" opacity="0.7" stroke-width="2" stroke-linejoin="miter">
  <path d="M44 74 V44 H74 M52 74 V52 H74"/>
  <path d="M556 74 V44 H526 M548 74 V52 H526"/>
  <path d="M44 726 V756 H74 M52 726 V748 H74"/>
  <path d="M556 726 V756 H526 M548 726 V748 H526"/>
</g>
<text x="300" y="470" text-anchor="middle" font-family="'Songti SC','Noto Serif SC','STSong',serif" font-size="380"
  fill="#e8dcc0" opacity="0.05">彝</text>
<text x="300" y="132" text-anchor="middle" font-family="'Songti SC','Noto Serif SC','STSong',serif" font-size="22"
  fill="#9a8a66" letter-spacing="8">传统舞蹈</text>
<g font-family="'Songti SC','Noto Serif SC','STSong',serif">
<text font-family="'Songti SC','Noto Serif SC','STSong',serif" x="300" y="418" text-anchor="middle" font-size="76" fill="#eadfc4" letter-spacing="6">彝族打歌</text>
<text x="300" y="470" text-anchor="middle" font-size="24" fill="#8f7f5c"
  letter-spacing="4">云南省</text>
</g>
<g transform="translate(276 668)">
  <rect width="48" height="76" rx="6" fill="#9e3b2c"/>
  <text x="24" y="34" text-anchor="middle" font-family="'Songti SC','Noto Serif SC','STSong',serif" font-size="26"
    fill="#f5ead8">承</text>
  <text x="24" y="66" text-anchor="middle" font-family="'Songti SC','Noto Serif SC','STSong',serif" font-size="26"
    fill="#f5ead8">脉</text>
</g>
</svg>
