<svg xmlns="http://www.w3.org/2000/svg" width="600" height="800" viewBox="0 0 600 800">
<defs>
  <radialGradient id="vg" cx="0.5" cy="0.42" r="0.75">
    <stop offset="0" stop-color="#241d15" stop-opacity="0.95"/>
    <stop offset="1" stop-color="#14100c" stop-opacity="0"/>
  </radialGradient>
</defs>
<rect width="600" height="800" fill="#15110d"/>
<rect width="600" height="800" fill="url(#vg)"/>
<g fill="none" stroke="#c9a86a" stroke-width="1.6" opacity="0.07" stroke-linecap="round">
<path d="M30 130 h21 a7 7 0 1 0 0 10 a5 5 0 1 1 -10 0"/>
<path d="M81 130 h27 a9 9 0 1 0 0 13 a6 6 0 1 1 -13 0"/>
<path d="M138 130 h16 a5 5 0 1 0 0 8 a4 4 0 1 1 -8 0"/>
<path d="M184 130 h26 a8 8 0 1 0 0 13 a6 6 0 1 1 -13 0"/>
<path d="M240 130 h25 a8 8 0 1 0 0 12 a6 6 0 1 1 -12 0"/>
<path d="M295 130 h18 a6 6 0 1 0 0 9 a4 4 0 1 1 -9 0"/>
<path d="M343 130 h27 a9 9 0 1 0 0 13 a6 6 0 1 1 -13 0"/>
<path d="M400 130 h19 a6 6 0 1 0 0 9 a4 4 0 1 1 -9 0"/>
<path d="M449 130 h16 a5 5 0 1 0 0 8 a4 4 0 1 1 -8 0"/>
<path d="M495 130 h25 a8 8 0 1 0 0 12 a6 6 0 1 1 -12 0"/>
<path d="M550 130 h19 a6 6 0 1 0 0 9 a4 4 0 1 1 -9 0"/>
<path d="M64 200 h21 a7 7 0 1 0 0 10 a5 5 0 1 1 -10 0"/>
<path d="M115 200 h23 a7 7 0 1 0 0 11 a5 5 0 1 1 -11 0"/>
<path d="M168 200 h27 a9 9 0 1 0 0 13 a6 6 0 1 1 -13 0"/>
<path d="M225 200 h16 a5 5 0 1 0 0 8 a4 4 0 1 1 -8 0"/>
<path d="M271 200 h20 a6 6 0 1 0 0 10 a5 5 0 1 1 -10 0"/>
<path d="M321 200 h17 a5 5 0 1 0 0 8 a4 4 0 1 1 -8 0"/>
<path d="M368 200 h17 a5 5 0 1 0 0 8 a4 4 0 1 1 -8 0"/>
<path d="M415 200 h27 a9 9 0 1 0 0 13 a6 6 0 1 1 -13 0"/>
<path d="M472 200 h18 a6 6 0 1 0 0 9 a4 4 0 1 1 -9 0"/>
<path d="M520 200 h19 a6 6 0 1 0 0 9 a4 4 0 1 1 -9 0"/>
<path d="M30 270 h24 a8 8 0 1 0 0 12 a6 6 0 1 1 -12 0"/>
<path d="M84 270 h19 a6 6 0 1 0 0 9 a4 4 0 1 1 -9 0"/>
<path d="M133 270 h25 a8 8 0 1 0 0 12 a6 6 0 1 1 -12 0"/>
<path d="M188 270 h26 a8 8 0 1 0 0 13 a6 6 0 1 1 -13 0"/>
<path d="M244 270 h18 a6 6 0 1 0 0 9 a4 4 0 1 1 -9 0"/>
<path d="M292 270 h19 a6 6 0 1 0 0 9 a4 4 0 1 1 -9 0"/>
<path d="M341 270 h16 a5 5 0 1 0 0 8 a4 4 0 1 1 -8 0"/>
<path d="M387 270 h17 a5 5 0 1 0 0 8 a4 4 0 1 1 -8 0"/>
<path d="M434 270 h17 a5 5 0 1 0 0 8 a4 4 0 1 1 -8 0"/>
<path d="M481 270 h19 a6 6 0 1 0 0 9 a4 4 0 1 1 -9 0"/>
<path d="M530 270 h22 a7 7 0 1 0 0 11 a5 5 0 1 1 -11 0"/>
<path d="M64 340 h17 a5 5 0 1 0 0 8 a4 4 0 1 1 -8 0"/>
<path d="M111 340 h19 a6 6 0 1 0 0 9 a4 4 0 1 1 -9 0"/>
<path d="M160 340 h16 a5 5 0 1 0 0 8 a4 4 0 1 1 -8 0"/>
<path d="M206 340 h17 a5 5 0 1 0 0 8 a4 4 0 1 1 -8 0"/>
<path d="M253 340 h24 a8 8 0 1 0 0 12 a6 6 0 1 1 -12 0"/>
<path d="M307 340 h18 a6 6 0 1 0 0 9 a4 4 0 1 1 -9 0"/>
<path d="M355 340 h21 a7 7 0 1 0 0 10 a5 5 0 1 1 -10 0"/>
<path d="M406 340 h23 a7 7 0 1 0 0 11 a5 5 0 1 1 -11 0"/>
<path d="M459 340 h19 a6 6 0 1 0 0 9 a4 4 0 1 1 -9 0"/>
<path d="M508 340 h23 a7 7 0 1 0 0 11 a5 5 0 1 1 -11 0"/>
<path d="M30 410 h19 a6 6 0 1 0 0 9 a4 4 0 1 1 -9 0"/>
<path d="M79 410 h17 a5 5 0 1 0 0 8 a4 4 0 1 1 -8 0"/>
<path d="M126 410 h17 a5 5 0 1 0 0 8 a4 4 0 1 1 -8 0"/>
<path d="M173 410 h23 a7 7 0 1 0 0 11 a5 5 0 1 1 -11 0"/>
<path d="M226 410 h21 a7 7 0 1 0 0 10 a5 5 0 1 1 -10 0"/>
<path d="M277 410 h18 a6 6 0 1 0 0 9 a4 4 0 1 1 -9 0"/>
<path d="M325 410 h27 a9 9 0 1 0 0 13 a6 6 0 1 1 -13 0"/>
<path d="M382 410 h17 a5 5 0 1 0 0 8 a4 4 0 1 1 -8 0"/>
<path d="M429 410 h24 a8 8 0 1 0 0 12 a6 6 0 1 1 -12 0"/>
<path d="M483 410 h23 a7 7 0 1 0 0 11 a5 5 0 1 1 -11 0"/>
<path d="M536 410 h21 a7 7 0 1 0 0 10 a5 5 0 1 1 -10 0"/>
<path d="M64 480 h16 a5 5 0 1 0 0 8 a4 4 0 1 1 -8 0"/>
<path d="M110 480 h24 a8 8 0 1 0 0 12 a6 6 0 1 1 -12 0"/>
<path d="M164 480 h26 a8 8 0 1 0 0 13 a6 6 0 1 1 -13 0"/>
<path d="M220 480 h17 a5 5 0 1 0 0 8 a4 4 0 1 1 -8 0"/>
<path d="M267 480 h21 a7 7 0 1 0 0 10 a5 5 0 1 1 -10 0"/>
<path d="M318 480 h16 a5 5 0 1 0 0 8 a4 4 0 1 1 -8 0"/>
<path d="M364 480 h18 a6 6 0 1 0 0 9 a4 4 0 1 1 -9 0"/>
<path d="M412 480 h16 a5 5 0 1 0 0 8 a4 4 0 1 1 -8 0"/>
<path d="M458 480 h25 a8 8 0 1 0 0 12 a6 6 0 1 1 -12 0"/>
<path d="M513 480 h26 a8 8 0 1 0 0 13 a6 6 0 1 1 -13 0"/>
<path d="M30 550 h18 a6 6 0 1 0 0 9 a4 4 0 1 1 -9 0"/>
<path d="M78 550 h16 a5 5 0 1 0 0 8 a4 4 0 1 1 -8 0"/>
<path d="M124 550 h18 a6 6 0 1 0 0 9 a4 4 0 1 1 -9 0"/>
<path d="M172 550 h16 a5 5 0 1 0 0 8 a4 4 0 1 1 -8 0"/>
<path d="M218 550 h26 a8 8 0 1 0 0 13 a6 6 0 1 1 -13 0"/>
<path d="M274 550 h26 a8 8 0 1 0 0 13 a6 6 0 1 1 -13 0"/>
<path d="M330 550 h24 a8 8 0 1 0 0 12 a6 6 0 1 1 -12 0"/>
<path d="M384 550 h23 a7 7 0 1 0 0 11 a5 5 0 1 1 -11 0"/>
<path d="M437 550 h24 a8 8 0 1 0 0 12 a6 6 0 1 1 -12 0"/>
<path d="M491 550 h20 a6 6 0 1 0 0 10 a5 5 0 1 1 -10 0"/>
<path d="M541 550 h17 a5 5 0 1 0 0 8 a4 4 0 1 1 -8 0"/>
<path d="M64 620 h24 a8 8 0 1 0 0 12 a6 6 0 1 1 -12 0"/>
<path d="M118 620 h24 a8 8 0 1 0 0 12 a6 6 0 1 1 -12 0"/>
<path d="M172 620 h27 a9 9 0 1 0 0 13 a6 6 0 1 1 -13 0"/>
<path d="M229 620 h24 a8 8 0 1 0 0 12 a6 6 0 1 1 -12 0"/>
<path d="M283 620 h17 a5 5 0 1 0 0 8 a4 4 0 1 1 -8 0"/>
<path d="M330 620 h25 a8 8 0 1 0 0 12 a6 6 0 1 1 -12 0"/>
<path d="M385 620 h24 a8 8 0 1 0 0 12 a6 6 0 1 1 -12 0"/>
<path d="M439 620 h24 a8 8 0 1 0 0 12 a6 6 0 1 1 -12 0"/>
<path d="M493 620 h20 a6 6 0 1 0 0 10 a5 5 0 1 1 -10 0"/>
<path d="M543 620 h16 a5 5 0 1 0 0 8 a4 4 0 1 1 -8 0"/>
<path d="M30 690 h17 a5 5 0 1 0 0 8 a4 4 0 1 1 -8 0"/>
<path d="M77 690 h21 a7 7 0 1 0 0 10 a5 5 0 1 1 -10 0"/>
<path d="M128 690 h25 a8 8 0 1 0 0 12 a6 6 0 1 1 -12 0"/>
<path d="M183 690 h16 a5 5 0 1 0 0 8 a4 4 0 1 1 -8 0"/>
<path d="M229 690 h26 a8 8 0 1 0 0 13 a6 6 0 1 1 -13 0"/>
<path d="M285 690 h20 a6 6 0 1 0 0 10 a5 5 0 1 1 -10 0"/>
<path d="M335 690 h18 a6 6 0 1 0 0 9 a4 4 0 1 1 -9 0"/>
<path d="M383 690 h17 a5 5 0 1 0 0 8 a4 4 0 1 1 -8 0"/>
<path d="M430 690 h25 a8 8 0 1 0 0 12 a6 6 0 1 1 -12 0"/>
<path d="M485 690 h25 a8 8 0 1 0 0 12 a6 6 0 1 1 -12 0"/>
<path d="M540 690 h22 a7 7 0 1 0 0 11 a5 5 0 1 1 -11 0"/>
</g>
<g fill="none" stroke="#a08a52" opacity="0.55" stroke-width="1.6">
  <rect x="20" y="20" width="560" height="760"/>
</g>
<g fill="none" stroke="#a08a52" opacity="0.22" stroke-width="1">
  <rect x="30" y="30" width="540" height="740"/>
</g>
<g fill="none" stroke="#a08a52" opacity="0.7" stroke-width="2" stroke-linejoin="miter">
  <path d="M44 74 V44 H74 M52 74 V52 H74"/>
  <path d="M556 74 V44 H526 M548 74 V52 H526"/>
  <path d="M44 726 V756 H74 M52 726 V748 H74"/>
  <path d="M556 726 V756 H526 M548 726 V748 H526"/>
</g>
<text x="300" y="470" text-anchor="middle" font-family="'Songti SC','Noto Serif SC','STSong',serif" font-size="380"
  fill="#e8dcc0" opacity="0.05">蒙</text>
<text x="300" y="132" text-anchor="middle" font-family="'Songti SC','Noto Serif SC','STSong',serif" font-size="22"
  fill="#9a8a66" letter-spacing="8">传统音乐</text>
<g font-family="'Songti SC','Noto Serif SC','STSong',serif">
<text font-family="'Songti SC','Noto Serif SC','STSong',serif" x="300" y="418" text-anchor="middle" font-size="64" fill="#eadfc4" letter-spacing="6">蒙古族呼麦</text>
<text x="300" y="470" text-anchor="middle" font-size="24" fill="#8f7f5c"
  letter-spacing="4">内蒙古自治区</text>
</g>
<g transform="translate(276 668)">
  <rect width="48" height="76" rx="6" fill="#9e3b2c"/>
  <text x="24" y="34" text-anchor="middle" font-family="'Songti SC','Noto Serif SC','STSong',serif" font-size="26"
    fill="#f5ead8">承</text>
  <text x="24" y="66" text-anchor="middle" font-family="'Songti SC','Noto Serif SC','STSong',serif" font-size="26"
    fill="#f5ead8">脉</text>
</g>
</svg>
