<svg xmlns="http://www.w3.org/2000/svg" width="600" height="800" viewBox="0 0 600 800">
<defs>
  <radialGradient id="vg" cx="0.5" cy="0.42" r="0.75">
    <stop offset="0" stop-color="#241d15" stop-opacity="0.95"/>
    <stop offset="1" stop-color="#14100c" stop-opacity="0"/>
  </radialGradient>
</defs>
<rect width="600" height="800" fill="#15110d"/>
<rect width="600" height="800" fill="url(#vg)"/>
<g fill="none" stroke="#c9a86a" stroke-width="1.6" opacity="0.07" stroke-linecap="round">
<path d="M30 130 h17 a5 5 0 1 0 0 8 a4 4 0 1 1 -8 0"/>
<path d="M77 130 h18 a6 6 0 1 0 0 9 a4 4 0 1 1 -9 0"/>
<path d="M125 130 h24 a8 8 0 1 0 0 12 a6 6 0 1 1 -12 0"/>
<path d="M179 130 h23 a7 7 0 1 0 0 11 a5 5 0 1 1 -11 0"/>
<path d="M232 130 h22 a7 7 0 1 0 0 11 a5 5 0 1 1 -11 0"/>
<path d="M284 130 h19 a6 6 0 1 0 0 9 a4 4 0 1 1 -9 0"/>
<path d="M333 130 h18 a6 6 0 1 0 0 9 a4 4 0 1 1 -9 0"/>
<path d="M381 130 h23 a7 7 0 1 0 0 11 a5 5 0 1 1 -11 0"/>
<path d="M434 130 h24 a8 8 0 1 0 0 12 a6 6 0 1 1 -12 0"/>
<path d="M488 130 h19 a6 6 0 1 0 0 9 a4 4 0 1 1 -9 0"/>
<path d="M537 130 h24 a8 8 0 1 0 0 12 a6 6 0 1 1 -12 0"/>
<path d="M64 200 h20 a6 6 0 1 0 0 10 a5 5 0 1 1 -10 0"/>
<path d="M114 200 h19 a6 6 0 1 0 0 9 a4 4 0 1 1 -9 0"/>
<path d="M163 200 h22 a7 7 0 1 0 0 11 a5 5 0 1 1 -11 0"/>
<path d="M215 200 h23 a7 7 0 1 0 0 11 a5 5 0 1 1 -11 0"/>
<path d="M268 200 h22 a7 7 0 1 0 0 11 a5 5 0 1 1 -11 0"/>
<path d="M320 200 h19 a6 6 0 1 0 0 9 a4 4 0 1 1 -9 0"/>
<path d="M369 200 h26 a8 8 0 1 0 0 13 a6 6 0 1 1 -13 0"/>
<path d="M425 200 h19 a6 6 0 1 0 0 9 a4 4 0 1 1 -9 0"/>
<path d="M474 200 h16 a5 5 0 1 0 0 8 a4 4 0 1 1 -8 0"/>
<path d="M520 200 h25 a8 8 0 1 0 0 12 a6 6 0 1 1 -12 0"/>
<path d="M30 270 h21 a7 7 0 1 0 0 10 a5 5 0 1 1 -10 0"/>
<path d="M81 270 h17 a5 5 0 1 0 0 8 a4 4 0 1 1 -8 0"/>
<path d="M128 270 h24 a8 8 0 1 0 0 12 a6 6 0 1 1 -12 0"/>
<path d="M182 270 h18 a6 6 0 1 0 0 9 a4 4 0 1 1 -9 0"/>
<path d="M230 270 h17 a5 5 0 1 0 0 8 a4 4 0 1 1 -8 0"/>
<path d="M277 270 h21 a7 7 0 1 0 0 10 a5 5 0 1 1 -10 0"/>
<path d="M328 270 h17 a5 5 0 1 0 0 8 a4 4 0 1 1 -8 0"/>
<path d="M375 270 h21 a7 7 0 1 0 0 10 a5 5 0 1 1 -10 0"/>
<path d="M426 270 h18 a6 6 0 1 0 0 9 a4 4 0 1 1 -9 0"/>
<path d="M474 270 h26 a8 8 0 1 0 0 13 a6 6 0 1 1 -13 0"/>
<path d="M530 270 h20 a6 6 0 1 0 0 10 a5 5 0 1 1 -10 0"/>
<path d="M64 340 h25 a8 8 0 1 0 0 12 a6 6 0 1 1 -12 0"/>
<path d="M119 340 h23 a7 7 0 1 0 0 11 a5 5 0 1 1 -11 0"/>
<path d="M172 340 h19 a6 6 0 1 0 0 9 a4 4 0 1 1 -9 0"/>
<path d="M221 340 h21 a7 7 0 1 0 0 10 a5 5 0 1 1 -10 0"/>
<path d="M272 340 h22 a7 7 0 1 0 0 11 a5 5 0 1 1 -11 0"/>
<path d="M324 340 h17 a5 5 0 1 0 0 8 a4 4 0 1 1 -8 0"/>
<path d="M371 340 h24 a8 8 0 1 0 0 12 a6 6 0 1 1 -12 0"/>
<path d="M425 340 h20 a6 6 0 1 0 0 10 a5 5 0 1 1 -10 0"/>
<path d="M475 340 h19 a6 6 0 1 0 0 9 a4 4 0 1 1 -9 0"/>
<path d="M524 340 h16 a5 5 0 1 0 0 8 a4 4 0 1 1 -8 0"/>
<path d="M30 410 h22 a7 7 0 1 0 0 11 a5 5 0 1 1 -11 0"/>
<path d="M82 410 h22 a7 7 0 1 0 0 11 a5 5 0 1 1 -11 0"/>
<path d="M134 410 h23 a7 7 0 1 0 0 11 a5 5 0 1 1 -11 0"/>
<path d="M187 410 h20 a6 6 0 1 0 0 10 a5 5 0 1 1 -10 0"/>
<path d="M237 410 h23 a7 7 0 1 0 0 11 a5 5 0 1 1 -11 0"/>
<path d="M290 410 h26 a8 8 0 1 0 0 13 a6 6 0 1 1 -13 0"/>
<path d="M346 410 h23 a7 7 0 1 0 0 11 a5 5 0 1 1 -11 0"/>
<path d="M399 410 h27 a9 9 0 1 0 0 13 a6 6 0 1 1 -13 0"/>
<path d="M456 410 h22 a7 7 0 1 0 0 11 a5 5 0 1 1 -11 0"/>
<path d="M508 410 h26 a8 8 0 1 0 0 13 a6 6 0 1 1 -13 0"/>
<path d="M64 480 h19 a6 6 0 1 0 0 9 a4 4 0 1 1 -9 0"/>
<path d="M113 480 h23 a7 7 0 1 0 0 11 a5 5 0 1 1 -11 0"/>
<path d="M166 480 h25 a8 8 0 1 0 0 12 a6 6 0 1 1 -12 0"/>
<path d="M221 480 h20 a6 6 0 1 0 0 10 a5 5 0 1 1 -10 0"/>
<path d="M271 480 h21 a7 7 0 1 0 0 10 a5 5 0 1 1 -10 0"/>
<path d="M322 480 h18 a6 6 0 1 0 0 9 a4 4 0 1 1 -9 0"/>
<path d="M370 480 h18 a6 6 0 1 0 0 9 a4 4 0 1 1 -9 0"/>
<path d="M418 480 h19 a6 6 0 1 0 0 9 a4 4 0 1 1 -9 0"/>
<path d="M467 480 h21 a7 7 0 1 0 0 10 a5 5 0 1 1 -10 0"/>
<path d="M518 480 h27 a9 9 0 1 0 0 13 a6 6 0 1 1 -13 0"/>
<path d="M30 550 h24 a8 8 0 1 0 0 12 a6 6 0 1 1 -12 0"/>
<path d="M84 550 h26 a8 8 0 1 0 0 13 a6 6 0 1 1 -13 0"/>
<path d="M140 550 h23 a7 7 0 1 0 0 11 a5 5 0 1 1 -11 0"/>
<path d="M193 550 h27 a9 9 0 1 0 0 13 a6 6 0 1 1 -13 0"/>
<path d="M250 550 h24 a8 8 0 1 0 0 12 a6 6 0 1 1 -12 0"/>
<path d="M304 550 h23 a7 7 0 1 0 0 11 a5 5 0 1 1 -11 0"/>
<path d="M357 550 h17 a5 5 0 1 0 0 8 a4 4 0 1 1 -8 0"/>
<path d="M404 550 h18 a6 6 0 1 0 0 9 a4 4 0 1 1 -9 0"/>
<path d="M452 550 h26 a8 8 0 1 0 0 13 a6 6 0 1 1 -13 0"/>
<path d="M508 550 h21 a7 7 0 1 0 0 10 a5 5 0 1 1 -10 0"/>
<path d="M559 550 h25 a8 8 0 1 0 0 12 a6 6 0 1 1 -12 0"/>
<path d="M64 620 h21 a7 7 0 1 0 0 10 a5 5 0 1 1 -10 0"/>
<path d="M115 620 h19 a6 6 0 1 0 0 9 a4 4 0 1 1 -9 0"/>
<path d="M164 620 h25 a8 8 0 1 0 0 12 a6 6 0 1 1 -12 0"/>
<path d="M219 620 h26 a8 8 0 1 0 0 13 a6 6 0 1 1 -13 0"/>
<path d="M275 620 h16 a5 5 0 1 0 0 8 a4 4 0 1 1 -8 0"/>
<path d="M321 620 h26 a8 8 0 1 0 0 13 a6 6 0 1 1 -13 0"/>
<path d="M377 620 h19 a6 6 0 1 0 0 9 a4 4 0 1 1 -9 0"/>
<path d="M426 620 h22 a7 7 0 1 0 0 11 a5 5 0 1 1 -11 0"/>
<path d="M478 620 h17 a5 5 0 1 0 0 8 a4 4 0 1 1 -8 0"/>
<path d="M525 620 h16 a5 5 0 1 0 0 8 a4 4 0 1 1 -8 0"/>
<path d="M30 690 h20 a6 6 0 1 0 0 10 a5 5 0 1 1 -10 0"/>
<path d="M80 690 h20 a6 6 0 1 0 0 10 a5 5 0 1 1 -10 0"/>
<path d="M130 690 h25 a8 8 0 1 0 0 12 a6 6 0 1 1 -12 0"/>
<path d="M185 690 h27 a9 9 0 1 0 0 13 a6 6 0 1 1 -13 0"/>
<path d="M242 690 h20 a6 6 0 1 0 0 10 a5 5 0 1 1 -10 0"/>
<path d="M292 690 h24 a8 8 0 1 0 0 12 a6 6 0 1 1 -12 0"/>
<path d="M346 690 h21 a7 7 0 1 0 0 10 a5 5 0 1 1 -10 0"/>
<path d="M397 690 h23 a7 7 0 1 0 0 11 a5 5 0 1 1 -11 0"/>
<path d="M450 690 h21 a7 7 0 1 0 0 10 a5 5 0 1 1 -10 0"/>
<path d="M501 690 h25 a8 8 0 1 0 0 12 a6 6 0 1 1 -12 0"/>
<path d="M556 690 h18 a6 6 0 1 0 0 9 a4 4 0 1 1 -9 0"/>
</g>
<g fill="none" stroke="#a08a52" opacity="0.55" stroke-width="1.6">
  <rect x="20" y="20" width="560" height="760"/>
</g>
<g fill="none" stroke="#a08a52" opacity="0.22" stroke-width="1">
  <rect x="30" y="30" width="540" height="740"/>
</g>
<g fill="none" stroke="#a08a52" opacity="0.7" stroke-width="2" stroke-linejoin="miter">
  <path d="M44 74 V44 H74 M52 74 V52 H74"/>
  <path d="M556 74 V44 H526 M548 74 V52 H526"/>
  <path d="M44 726 V756 H74 M52 726 V748 H74"/>
  <path d="M556 726 V756 H526 M548 726 V748 H526"/>
</g>
<text x="300" y="470" text-anchor="middle" font-family="'Songti SC','Noto Serif SC','STSong',serif" font-size="380"
  fill="#e8dcc0" opacity="0.05">新</text>
<text x="300" y="132" text-anchor="middle" font-family="'Songti SC','Noto Serif SC','STSong',serif" font-size="22"
  fill="#9a8a66" letter-spacing="8">曲艺</text>
<g font-family="'Songti SC','Noto Serif SC','STSong',serif">
<text font-family="'Songti SC','Noto Serif SC','STSong',serif" x="300" y="418" text-anchor="middle" font-size="76" fill="#eadfc4" letter-spacing="6">新疆曲子</text>
<text x="300" y="470" text-anchor="middle" font-size="24" fill="#8f7f5c"
  letter-spacing="4">新疆维吾尔自治区 · 清代中后期形成</text>
</g>
<g transform="translate(276 668)">
  <rect width="48" height="76" rx="6" fill="#9e3b2c"/>
  <text x="24" y="34" text-anchor="middle" font-family="'Songti SC','Noto Serif SC','STSong',serif" font-size="26"
    fill="#f5ead8">承</text>
  <text x="24" y="66" text-anchor="middle" font-family="'Songti SC','Noto Serif SC','STSong',serif" font-size="26"
    fill="#f5ead8">脉</text>
</g>
</svg>
