<svg xmlns="http://www.w3.org/2000/svg" width="600" height="800" viewBox="0 0 600 800">
<defs>
  <radialGradient id="vg" cx="0.5" cy="0.42" r="0.75">
    <stop offset="0" stop-color="#241d15" stop-opacity="0.95"/>
    <stop offset="1" stop-color="#14100c" stop-opacity="0"/>
  </radialGradient>
</defs>
<rect width="600" height="800" fill="#15110d"/>
<rect width="600" height="800" fill="url(#vg)"/>
<g fill="none" stroke="#c9a86a" stroke-width="1.6" opacity="0.07" stroke-linecap="round">
<path d="M30 130 h20 a6 6 0 1 0 0 10 a5 5 0 1 1 -10 0"/>
<path d="M80 130 h23 a7 7 0 1 0 0 11 a5 5 0 1 1 -11 0"/>
<path d="M133 130 h24 a8 8 0 1 0 0 12 a6 6 0 1 1 -12 0"/>
<path d="M187 130 h22 a7 7 0 1 0 0 11 a5 5 0 1 1 -11 0"/>
<path d="M239 130 h25 a8 8 0 1 0 0 12 a6 6 0 1 1 -12 0"/>
<path d="M294 130 h16 a5 5 0 1 0 0 8 a4 4 0 1 1 -8 0"/>
<path d="M340 130 h20 a6 6 0 1 0 0 10 a5 5 0 1 1 -10 0"/>
<path d="M390 130 h21 a7 7 0 1 0 0 10 a5 5 0 1 1 -10 0"/>
<path d="M441 130 h20 a6 6 0 1 0 0 10 a5 5 0 1 1 -10 0"/>
<path d="M491 130 h26 a8 8 0 1 0 0 13 a6 6 0 1 1 -13 0"/>
<path d="M547 130 h24 a8 8 0 1 0 0 12 a6 6 0 1 1 -12 0"/>
<path d="M64 200 h19 a6 6 0 1 0 0 9 a4 4 0 1 1 -9 0"/>
<path d="M113 200 h27 a9 9 0 1 0 0 13 a6 6 0 1 1 -13 0"/>
<path d="M170 200 h23 a7 7 0 1 0 0 11 a5 5 0 1 1 -11 0"/>
<path d="M223 200 h22 a7 7 0 1 0 0 11 a5 5 0 1 1 -11 0"/>
<path d="M275 200 h24 a8 8 0 1 0 0 12 a6 6 0 1 1 -12 0"/>
<path d="M329 200 h24 a8 8 0 1 0 0 12 a6 6 0 1 1 -12 0"/>
<path d="M383 200 h26 a8 8 0 1 0 0 13 a6 6 0 1 1 -13 0"/>
<path d="M439 200 h20 a6 6 0 1 0 0 10 a5 5 0 1 1 -10 0"/>
<path d="M489 200 h20 a6 6 0 1 0 0 10 a5 5 0 1 1 -10 0"/>
<path d="M539 200 h27 a9 9 0 1 0 0 13 a6 6 0 1 1 -13 0"/>
<path d="M30 270 h24 a8 8 0 1 0 0 12 a6 6 0 1 1 -12 0"/>
<path d="M84 270 h16 a5 5 0 1 0 0 8 a4 4 0 1 1 -8 0"/>
<path d="M130 270 h22 a7 7 0 1 0 0 11 a5 5 0 1 1 -11 0"/>
<path d="M182 270 h23 a7 7 0 1 0 0 11 a5 5 0 1 1 -11 0"/>
<path d="M235 270 h25 a8 8 0 1 0 0 12 a6 6 0 1 1 -12 0"/>
<path d="M290 270 h20 a6 6 0 1 0 0 10 a5 5 0 1 1 -10 0"/>
<path d="M340 270 h18 a6 6 0 1 0 0 9 a4 4 0 1 1 -9 0"/>
<path d="M388 270 h20 a6 6 0 1 0 0 10 a5 5 0 1 1 -10 0"/>
<path d="M438 270 h22 a7 7 0 1 0 0 11 a5 5 0 1 1 -11 0"/>
<path d="M490 270 h16 a5 5 0 1 0 0 8 a4 4 0 1 1 -8 0"/>
<path d="M536 270 h26 a8 8 0 1 0 0 13 a6 6 0 1 1 -13 0"/>
<path d="M64 340 h21 a7 7 0 1 0 0 10 a5 5 0 1 1 -10 0"/>
<path d="M115 340 h26 a8 8 0 1 0 0 13 a6 6 0 1 1 -13 0"/>
<path d="M171 340 h18 a6 6 0 1 0 0 9 a4 4 0 1 1 -9 0"/>
<path d="M219 340 h27 a9 9 0 1 0 0 13 a6 6 0 1 1 -13 0"/>
<path d="M276 340 h26 a8 8 0 1 0 0 13 a6 6 0 1 1 -13 0"/>
<path d="M332 340 h22 a7 7 0 1 0 0 11 a5 5 0 1 1 -11 0"/>
<path d="M384 340 h22 a7 7 0 1 0 0 11 a5 5 0 1 1 -11 0"/>
<path d="M436 340 h20 a6 6 0 1 0 0 10 a5 5 0 1 1 -10 0"/>
<path d="M486 340 h27 a9 9 0 1 0 0 13 a6 6 0 1 1 -13 0"/>
<path d="M543 340 h26 a8 8 0 1 0 0 13 a6 6 0 1 1 -13 0"/>
<path d="M30 410 h27 a9 9 0 1 0 0 13 a6 6 0 1 1 -13 0"/>
<path d="M87 410 h22 a7 7 0 1 0 0 11 a5 5 0 1 1 -11 0"/>
<path d="M139 410 h25 a8 8 0 1 0 0 12 a6 6 0 1 1 -12 0"/>
<path d="M194 410 h27 a9 9 0 1 0 0 13 a6 6 0 1 1 -13 0"/>
<path d="M251 410 h26 a8 8 0 1 0 0 13 a6 6 0 1 1 -13 0"/>
<path d="M307 410 h17 a5 5 0 1 0 0 8 a4 4 0 1 1 -8 0"/>
<path d="M354 410 h24 a8 8 0 1 0 0 12 a6 6 0 1 1 -12 0"/>
<path d="M408 410 h16 a5 5 0 1 0 0 8 a4 4 0 1 1 -8 0"/>
<path d="M454 410 h22 a7 7 0 1 0 0 11 a5 5 0 1 1 -11 0"/>
<path d="M506 410 h16 a5 5 0 1 0 0 8 a4 4 0 1 1 -8 0"/>
<path d="M552 410 h18 a6 6 0 1 0 0 9 a4 4 0 1 1 -9 0"/>
<path d="M64 480 h18 a6 6 0 1 0 0 9 a4 4 0 1 1 -9 0"/>
<path d="M112 480 h16 a5 5 0 1 0 0 8 a4 4 0 1 1 -8 0"/>
<path d="M158 480 h25 a8 8 0 1 0 0 12 a6 6 0 1 1 -12 0"/>
<path d="M213 480 h24 a8 8 0 1 0 0 12 a6 6 0 1 1 -12 0"/>
<path d="M267 480 h24 a8 8 0 1 0 0 12 a6 6 0 1 1 -12 0"/>
<path d="M321 480 h26 a8 8 0 1 0 0 13 a6 6 0 1 1 -13 0"/>
<path d="M377 480 h27 a9 9 0 1 0 0 13 a6 6 0 1 1 -13 0"/>
<path d="M434 480 h26 a8 8 0 1 0 0 13 a6 6 0 1 1 -13 0"/>
<path d="M490 480 h27 a9 9 0 1 0 0 13 a6 6 0 1 1 -13 0"/>
<path d="M547 480 h27 a9 9 0 1 0 0 13 a6 6 0 1 1 -13 0"/>
<path d="M30 550 h27 a9 9 0 1 0 0 13 a6 6 0 1 1 -13 0"/>
<path d="M87 550 h27 a9 9 0 1 0 0 13 a6 6 0 1 1 -13 0"/>
<path d="M144 550 h27 a9 9 0 1 0 0 13 a6 6 0 1 1 -13 0"/>
<path d="M201 550 h26 a8 8 0 1 0 0 13 a6 6 0 1 1 -13 0"/>
<path d="M257 550 h16 a5 5 0 1 0 0 8 a4 4 0 1 1 -8 0"/>
<path d="M303 550 h22 a7 7 0 1 0 0 11 a5 5 0 1 1 -11 0"/>
<path d="M355 550 h17 a5 5 0 1 0 0 8 a4 4 0 1 1 -8 0"/>
<path d="M402 550 h16 a5 5 0 1 0 0 8 a4 4 0 1 1 -8 0"/>
<path d="M448 550 h20 a6 6 0 1 0 0 10 a5 5 0 1 1 -10 0"/>
<path d="M498 550 h21 a7 7 0 1 0 0 10 a5 5 0 1 1 -10 0"/>
<path d="M549 550 h26 a8 8 0 1 0 0 13 a6 6 0 1 1 -13 0"/>
<path d="M64 620 h27 a9 9 0 1 0 0 13 a6 6 0 1 1 -13 0"/>
<path d="M121 620 h26 a8 8 0 1 0 0 13 a6 6 0 1 1 -13 0"/>
<path d="M177 620 h21 a7 7 0 1 0 0 10 a5 5 0 1 1 -10 0"/>
<path d="M228 620 h27 a9 9 0 1 0 0 13 a6 6 0 1 1 -13 0"/>
<path d="M285 620 h22 a7 7 0 1 0 0 11 a5 5 0 1 1 -11 0"/>
<path d="M337 620 h22 a7 7 0 1 0 0 11 a5 5 0 1 1 -11 0"/>
<path d="M389 620 h27 a9 9 0 1 0 0 13 a6 6 0 1 1 -13 0"/>
<path d="M446 620 h26 a8 8 0 1 0 0 13 a6 6 0 1 1 -13 0"/>
<path d="M502 620 h19 a6 6 0 1 0 0 9 a4 4 0 1 1 -9 0"/>
<path d="M551 620 h19 a6 6 0 1 0 0 9 a4 4 0 1 1 -9 0"/>
<path d="M30 690 h27 a9 9 0 1 0 0 13 a6 6 0 1 1 -13 0"/>
<path d="M87 690 h23 a7 7 0 1 0 0 11 a5 5 0 1 1 -11 0"/>
<path d="M140 690 h26 a8 8 0 1 0 0 13 a6 6 0 1 1 -13 0"/>
<path d="M196 690 h26 a8 8 0 1 0 0 13 a6 6 0 1 1 -13 0"/>
<path d="M252 690 h16 a5 5 0 1 0 0 8 a4 4 0 1 1 -8 0"/>
<path d="M298 690 h27 a9 9 0 1 0 0 13 a6 6 0 1 1 -13 0"/>
<path d="M355 690 h21 a7 7 0 1 0 0 10 a5 5 0 1 1 -10 0"/>
<path d="M406 690 h20 a6 6 0 1 0 0 10 a5 5 0 1 1 -10 0"/>
<path d="M456 690 h26 a8 8 0 1 0 0 13 a6 6 0 1 1 -13 0"/>
<path d="M512 690 h26 a8 8 0 1 0 0 13 a6 6 0 1 1 -13 0"/>
</g>
<g fill="none" stroke="#a08a52" opacity="0.55" stroke-width="1.6">
  <rect x="20" y="20" width="560" height="760"/>
</g>
<g fill="none" stroke="#a08a52" opacity="0.22" stroke-width="1">
  <rect x="30" y="30" width="540" height="740"/>
</g>
<g fill="none" stroke="#a08a52" opacity="0.7" stroke-width="2" stroke-linejoin="miter">
  <path d="M44 74 V44 H74 M52 74 V52 H74"/>
  <path d="M556 74 V44 H526 M548 74 V52 H526"/>
  <path d="M44 726 V756 H74 M52 726 V748 H74"/>
  <path d="M556 726 V756 H526 M548 726 V748 H526"/>
</g>
<text x="300" y="470" text-anchor="middle" font-family="'Songti SC','Noto Serif SC','STSong',serif" font-size="380"
  fill="#e8dcc0" opacity="0.05">豫</text>
<text x="300" y="132" text-anchor="middle" font-family="'Songti SC','Noto Serif SC','STSong',serif" font-size="22"
  fill="#9a8a66" letter-spacing="8">传统戏剧</text>
<g font-family="'Songti SC','Noto Serif SC','STSong',serif">
<text font-family="'Songti SC','Noto Serif SC','STSong',serif" x="300" y="418" text-anchor="middle" font-size="64" fill="#eadfc4" letter-spacing="6">豫剧（桑派）</text>
<text x="300" y="470" text-anchor="middle" font-size="24" fill="#8f7f5c"
  letter-spacing="4">河北省</text>
</g>
<g transform="translate(276 668)">
  <rect width="48" height="76" rx="6" fill="#9e3b2c"/>
  <text x="24" y="34" text-anchor="middle" font-family="'Songti SC','Noto Serif SC','STSong',serif" font-size="26"
    fill="#f5ead8">承</text>
  <text x="24" y="66" text-anchor="middle" font-family="'Songti SC','Noto Serif SC','STSong',serif" font-size="26"
    fill="#f5ead8">脉</text>
</g>
</svg>
