<svg xmlns="http://www.w3.org/2000/svg" width="600" height="800" viewBox="0 0 600 800">
<defs>
  <radialGradient id="vg" cx="0.5" cy="0.42" r="0.75">
    <stop offset="0" stop-color="#241d15" stop-opacity="0.95"/>
    <stop offset="1" stop-color="#14100c" stop-opacity="0"/>
  </radialGradient>
</defs>
<rect width="600" height="800" fill="#15110d"/>
<rect width="600" height="800" fill="url(#vg)"/>
<g fill="none" stroke="#c9a86a" stroke-width="1.6" opacity="0.07" stroke-linecap="round">
<path d="M30 130 h19 a6 6 0 1 0 0 9 a4 4 0 1 1 -9 0"/>
<path d="M79 130 h23 a7 7 0 1 0 0 11 a5 5 0 1 1 -11 0"/>
<path d="M132 130 h24 a8 8 0 1 0 0 12 a6 6 0 1 1 -12 0"/>
<path d="M186 130 h16 a5 5 0 1 0 0 8 a4 4 0 1 1 -8 0"/>
<path d="M232 130 h17 a5 5 0 1 0 0 8 a4 4 0 1 1 -8 0"/>
<path d="M279 130 h23 a7 7 0 1 0 0 11 a5 5 0 1 1 -11 0"/>
<path d="M332 130 h24 a8 8 0 1 0 0 12 a6 6 0 1 1 -12 0"/>
<path d="M386 130 h21 a7 7 0 1 0 0 10 a5 5 0 1 1 -10 0"/>
<path d="M437 130 h23 a7 7 0 1 0 0 11 a5 5 0 1 1 -11 0"/>
<path d="M490 130 h22 a7 7 0 1 0 0 11 a5 5 0 1 1 -11 0"/>
<path d="M542 130 h18 a6 6 0 1 0 0 9 a4 4 0 1 1 -9 0"/>
<path d="M64 200 h25 a8 8 0 1 0 0 12 a6 6 0 1 1 -12 0"/>
<path d="M119 200 h18 a6 6 0 1 0 0 9 a4 4 0 1 1 -9 0"/>
<path d="M167 200 h26 a8 8 0 1 0 0 13 a6 6 0 1 1 -13 0"/>
<path d="M223 200 h18 a6 6 0 1 0 0 9 a4 4 0 1 1 -9 0"/>
<path d="M271 200 h25 a8 8 0 1 0 0 12 a6 6 0 1 1 -12 0"/>
<path d="M326 200 h24 a8 8 0 1 0 0 12 a6 6 0 1 1 -12 0"/>
<path d="M380 200 h17 a5 5 0 1 0 0 8 a4 4 0 1 1 -8 0"/>
<path d="M427 200 h23 a7 7 0 1 0 0 11 a5 5 0 1 1 -11 0"/>
<path d="M480 200 h27 a9 9 0 1 0 0 13 a6 6 0 1 1 -13 0"/>
<path d="M537 200 h26 a8 8 0 1 0 0 13 a6 6 0 1 1 -13 0"/>
<path d="M30 270 h19 a6 6 0 1 0 0 9 a4 4 0 1 1 -9 0"/>
<path d="M79 270 h25 a8 8 0 1 0 0 12 a6 6 0 1 1 -12 0"/>
<path d="M134 270 h27 a9 9 0 1 0 0 13 a6 6 0 1 1 -13 0"/>
<path d="M191 270 h16 a5 5 0 1 0 0 8 a4 4 0 1 1 -8 0"/>
<path d="M237 270 h17 a5 5 0 1 0 0 8 a4 4 0 1 1 -8 0"/>
<path d="M284 270 h21 a7 7 0 1 0 0 10 a5 5 0 1 1 -10 0"/>
<path d="M335 270 h20 a6 6 0 1 0 0 10 a5 5 0 1 1 -10 0"/>
<path d="M385 270 h17 a5 5 0 1 0 0 8 a4 4 0 1 1 -8 0"/>
<path d="M432 270 h17 a5 5 0 1 0 0 8 a4 4 0 1 1 -8 0"/>
<path d="M479 270 h20 a6 6 0 1 0 0 10 a5 5 0 1 1 -10 0"/>
<path d="M529 270 h17 a5 5 0 1 0 0 8 a4 4 0 1 1 -8 0"/>
<path d="M64 340 h20 a6 6 0 1 0 0 10 a5 5 0 1 1 -10 0"/>
<path d="M114 340 h24 a8 8 0 1 0 0 12 a6 6 0 1 1 -12 0"/>
<path d="M168 340 h26 a8 8 0 1 0 0 13 a6 6 0 1 1 -13 0"/>
<path d="M224 340 h16 a5 5 0 1 0 0 8 a4 4 0 1 1 -8 0"/>
<path d="M270 340 h21 a7 7 0 1 0 0 10 a5 5 0 1 1 -10 0"/>
<path d="M321 340 h20 a6 6 0 1 0 0 10 a5 5 0 1 1 -10 0"/>
<path d="M371 340 h20 a6 6 0 1 0 0 10 a5 5 0 1 1 -10 0"/>
<path d="M421 340 h25 a8 8 0 1 0 0 12 a6 6 0 1 1 -12 0"/>
<path d="M476 340 h16 a5 5 0 1 0 0 8 a4 4 0 1 1 -8 0"/>
<path d="M522 340 h27 a9 9 0 1 0 0 13 a6 6 0 1 1 -13 0"/>
<path d="M30 410 h18 a6 6 0 1 0 0 9 a4 4 0 1 1 -9 0"/>
<path d="M78 410 h18 a6 6 0 1 0 0 9 a4 4 0 1 1 -9 0"/>
<path d="M126 410 h17 a5 5 0 1 0 0 8 a4 4 0 1 1 -8 0"/>
<path d="M173 410 h21 a7 7 0 1 0 0 10 a5 5 0 1 1 -10 0"/>
<path d="M224 410 h20 a6 6 0 1 0 0 10 a5 5 0 1 1 -10 0"/>
<path d="M274 410 h25 a8 8 0 1 0 0 12 a6 6 0 1 1 -12 0"/>
<path d="M329 410 h20 a6 6 0 1 0 0 10 a5 5 0 1 1 -10 0"/>
<path d="M379 410 h17 a5 5 0 1 0 0 8 a4 4 0 1 1 -8 0"/>
<path d="M426 410 h24 a8 8 0 1 0 0 12 a6 6 0 1 1 -12 0"/>
<path d="M480 410 h17 a5 5 0 1 0 0 8 a4 4 0 1 1 -8 0"/>
<path d="M527 410 h22 a7 7 0 1 0 0 11 a5 5 0 1 1 -11 0"/>
<path d="M64 480 h22 a7 7 0 1 0 0 11 a5 5 0 1 1 -11 0"/>
<path d="M116 480 h26 a8 8 0 1 0 0 13 a6 6 0 1 1 -13 0"/>
<path d="M172 480 h22 a7 7 0 1 0 0 11 a5 5 0 1 1 -11 0"/>
<path d="M224 480 h16 a5 5 0 1 0 0 8 a4 4 0 1 1 -8 0"/>
<path d="M270 480 h19 a6 6 0 1 0 0 9 a4 4 0 1 1 -9 0"/>
<path d="M319 480 h24 a8 8 0 1 0 0 12 a6 6 0 1 1 -12 0"/>
<path d="M373 480 h16 a5 5 0 1 0 0 8 a4 4 0 1 1 -8 0"/>
<path d="M419 480 h21 a7 7 0 1 0 0 10 a5 5 0 1 1 -10 0"/>
<path d="M470 480 h19 a6 6 0 1 0 0 9 a4 4 0 1 1 -9 0"/>
<path d="M519 480 h20 a6 6 0 1 0 0 10 a5 5 0 1 1 -10 0"/>
<path d="M30 550 h17 a5 5 0 1 0 0 8 a4 4 0 1 1 -8 0"/>
<path d="M77 550 h18 a6 6 0 1 0 0 9 a4 4 0 1 1 -9 0"/>
<path d="M125 550 h27 a9 9 0 1 0 0 13 a6 6 0 1 1 -13 0"/>
<path d="M182 550 h21 a7 7 0 1 0 0 10 a5 5 0 1 1 -10 0"/>
<path d="M233 550 h20 a6 6 0 1 0 0 10 a5 5 0 1 1 -10 0"/>
<path d="M283 550 h20 a6 6 0 1 0 0 10 a5 5 0 1 1 -10 0"/>
<path d="M333 550 h19 a6 6 0 1 0 0 9 a4 4 0 1 1 -9 0"/>
<path d="M382 550 h20 a6 6 0 1 0 0 10 a5 5 0 1 1 -10 0"/>
<path d="M432 550 h17 a5 5 0 1 0 0 8 a4 4 0 1 1 -8 0"/>
<path d="M479 550 h19 a6 6 0 1 0 0 9 a4 4 0 1 1 -9 0"/>
<path d="M528 550 h24 a8 8 0 1 0 0 12 a6 6 0 1 1 -12 0"/>
<path d="M64 620 h23 a7 7 0 1 0 0 11 a5 5 0 1 1 -11 0"/>
<path d="M117 620 h23 a7 7 0 1 0 0 11 a5 5 0 1 1 -11 0"/>
<path d="M170 620 h19 a6 6 0 1 0 0 9 a4 4 0 1 1 -9 0"/>
<path d="M219 620 h20 a6 6 0 1 0 0 10 a5 5 0 1 1 -10 0"/>
<path d="M269 620 h16 a5 5 0 1 0 0 8 a4 4 0 1 1 -8 0"/>
<path d="M315 620 h20 a6 6 0 1 0 0 10 a5 5 0 1 1 -10 0"/>
<path d="M365 620 h26 a8 8 0 1 0 0 13 a6 6 0 1 1 -13 0"/>
<path d="M421 620 h19 a6 6 0 1 0 0 9 a4 4 0 1 1 -9 0"/>
<path d="M470 620 h17 a5 5 0 1 0 0 8 a4 4 0 1 1 -8 0"/>
<path d="M517 620 h23 a7 7 0 1 0 0 11 a5 5 0 1 1 -11 0"/>
<path d="M30 690 h19 a6 6 0 1 0 0 9 a4 4 0 1 1 -9 0"/>
<path d="M79 690 h21 a7 7 0 1 0 0 10 a5 5 0 1 1 -10 0"/>
<path d="M130 690 h23 a7 7 0 1 0 0 11 a5 5 0 1 1 -11 0"/>
<path d="M183 690 h21 a7 7 0 1 0 0 10 a5 5 0 1 1 -10 0"/>
<path d="M234 690 h26 a8 8 0 1 0 0 13 a6 6 0 1 1 -13 0"/>
<path d="M290 690 h23 a7 7 0 1 0 0 11 a5 5 0 1 1 -11 0"/>
<path d="M343 690 h24 a8 8 0 1 0 0 12 a6 6 0 1 1 -12 0"/>
<path d="M397 690 h23 a7 7 0 1 0 0 11 a5 5 0 1 1 -11 0"/>
<path d="M450 690 h19 a6 6 0 1 0 0 9 a4 4 0 1 1 -9 0"/>
<path d="M499 690 h17 a5 5 0 1 0 0 8 a4 4 0 1 1 -8 0"/>
<path d="M546 690 h26 a8 8 0 1 0 0 13 a6 6 0 1 1 -13 0"/>
</g>
<g fill="none" stroke="#a08a52" opacity="0.55" stroke-width="1.6">
  <rect x="20" y="20" width="560" height="760"/>
</g>
<g fill="none" stroke="#a08a52" opacity="0.22" stroke-width="1">
  <rect x="30" y="30" width="540" height="740"/>
</g>
<g fill="none" stroke="#a08a52" opacity="0.7" stroke-width="2" stroke-linejoin="miter">
  <path d="M44 74 V44 H74 M52 74 V52 H74"/>
  <path d="M556 74 V44 H526 M548 74 V52 H526"/>
  <path d="M44 726 V756 H74 M52 726 V748 H74"/>
  <path d="M556 726 V756 H526 M548 726 V748 H526"/>
</g>
<text x="300" y="470" text-anchor="middle" font-family="'Songti SC','Noto Serif SC','STSong',serif" font-size="380"
  fill="#e8dcc0" opacity="0.05">哈</text>
<text x="300" y="132" text-anchor="middle" font-family="'Songti SC','Noto Serif SC','STSong',serif" font-size="22"
  fill="#9a8a66" letter-spacing="8">传统音乐</text>
<g font-family="'Songti SC','Noto Serif SC','STSong',serif">
<text font-family="'Songti SC','Noto Serif SC','STSong',serif" x="300" y="396" text-anchor="middle" font-size="56" fill="#eadfc4" letter-spacing="6">哈萨克六十</text>
<text font-family="'Songti SC','Noto Serif SC','STSong',serif" x="300" y="466" text-anchor="middle" font-size="56" fill="#eadfc4" letter-spacing="6">二阔恩尔</text>
<text x="300" y="512" text-anchor="middle" font-size="24" fill="#8f7f5c"
  letter-spacing="4">新疆维吾尔自治区</text>
</g>
<g transform="translate(276 668)">
  <rect width="48" height="76" rx="6" fill="#9e3b2c"/>
  <text x="24" y="34" text-anchor="middle" font-family="'Songti SC','Noto Serif SC','STSong',serif" font-size="26"
    fill="#f5ead8">承</text>
  <text x="24" y="66" text-anchor="middle" font-family="'Songti SC','Noto Serif SC','STSong',serif" font-size="26"
    fill="#f5ead8">脉</text>
</g>
</svg>
