<svg xmlns="http://www.w3.org/2000/svg" width="600" height="800" viewBox="0 0 600 800">
<defs>
  <radialGradient id="vg" cx="0.5" cy="0.42" r="0.75">
    <stop offset="0" stop-color="#241d15" stop-opacity="0.95"/>
    <stop offset="1" stop-color="#14100c" stop-opacity="0"/>
  </radialGradient>
</defs>
<rect width="600" height="800" fill="#15110d"/>
<rect width="600" height="800" fill="url(#vg)"/>
<g fill="none" stroke="#c9a86a" stroke-width="1.6" opacity="0.07" stroke-linecap="round">
<path d="M40 150 h18 v18 h-12 v-9 h6"/>
<path d="M66 150 h14 v14 h-9 v-7 h4"/>
<path d="M88 150 h19 v19 h-12 v-9 h6"/>
<path d="M115 150 h21 v21 h-14 v-10 h7"/>
<path d="M144 150 h21 v21 h-14 v-10 h7"/>
<path d="M173 150 h23 v23 h-15 v-11 h7"/>
<path d="M204 150 h20 v20 h-13 v-10 h6"/>
<path d="M232 150 h18 v18 h-12 v-9 h6"/>
<path d="M258 150 h22 v22 h-14 v-11 h7"/>
<path d="M288 150 h21 v21 h-14 v-10 h7"/>
<path d="M317 150 h14 v14 h-9 v-7 h4"/>
<path d="M339 150 h22 v22 h-14 v-11 h7"/>
<path d="M369 150 h18 v18 h-12 v-9 h6"/>
<path d="M395 150 h21 v21 h-14 v-10 h7"/>
<path d="M424 150 h22 v22 h-14 v-11 h7"/>
<path d="M454 150 h21 v21 h-14 v-10 h7"/>
<path d="M483 150 h21 v21 h-14 v-10 h7"/>
<path d="M512 150 h18 v18 h-12 v-9 h6"/>
<path d="M538 150 h22 v22 h-14 v-11 h7"/>
<path d="M40 640 h19 v19 h-12 v-9 h6"/>
<path d="M67 640 h14 v14 h-9 v-7 h4"/>
<path d="M89 640 h17 v17 h-11 v-8 h5"/>
<path d="M114 640 h17 v17 h-11 v-8 h5"/>
<path d="M139 640 h15 v15 h-10 v-7 h5"/>
<path d="M162 640 h21 v21 h-14 v-10 h7"/>
<path d="M191 640 h20 v20 h-13 v-10 h6"/>
<path d="M219 640 h20 v20 h-13 v-10 h6"/>
<path d="M247 640 h16 v16 h-10 v-8 h5"/>
<path d="M271 640 h21 v21 h-14 v-10 h7"/>
<path d="M300 640 h18 v18 h-12 v-9 h6"/>
<path d="M326 640 h17 v17 h-11 v-8 h5"/>
<path d="M351 640 h18 v18 h-12 v-9 h6"/>
<path d="M377 640 h22 v22 h-14 v-11 h7"/>
<path d="M407 640 h22 v22 h-14 v-11 h7"/>
<path d="M437 640 h20 v20 h-13 v-10 h6"/>
<path d="M465 640 h16 v16 h-10 v-8 h5"/>
<path d="M489 640 h20 v20 h-13 v-10 h6"/>
<path d="M517 640 h22 v22 h-14 v-11 h7"/>
</g>
<g fill="none" stroke="#a08a52" opacity="0.55" stroke-width="1.6">
  <rect x="20" y="20" width="560" height="760"/>
</g>
<g fill="none" stroke="#a08a52" opacity="0.22" stroke-width="1">
  <rect x="30" y="30" width="540" height="740"/>
</g>
<g fill="none" stroke="#a08a52" opacity="0.7" stroke-width="2" stroke-linejoin="miter">
  <path d="M44 74 V44 H74 M52 74 V52 H74"/>
  <path d="M556 74 V44 H526 M548 74 V52 H526"/>
  <path d="M44 726 V756 H74 M52 726 V748 H74"/>
  <path d="M556 726 V756 H526 M548 726 V748 H526"/>
</g>
<text x="300" y="470" text-anchor="middle" font-family="'Songti SC','Noto Serif SC','STSong',serif" font-size="380"
  fill="#e8dcc0" opacity="0.05">盘</text>
<text x="300" y="132" text-anchor="middle" font-family="'Songti SC','Noto Serif SC','STSong',serif" font-size="22"
  fill="#9a8a66" letter-spacing="8">民间文学</text>
<g font-family="'Songti SC','Noto Serif SC','STSong',serif">
<text font-family="'Songti SC','Noto Serif SC','STSong',serif" x="300" y="418" text-anchor="middle" font-size="76" fill="#eadfc4" letter-spacing="6">盘王大歌</text>
<text x="300" y="470" text-anchor="middle" font-size="24" fill="#8f7f5c"
  letter-spacing="4">湖南省</text>
</g>
<g transform="translate(276 668)">
  <rect width="48" height="76" rx="6" fill="#9e3b2c"/>
  <text x="24" y="34" text-anchor="middle" font-family="'Songti SC','Noto Serif SC','STSong',serif" font-size="26"
    fill="#f5ead8">承</text>
  <text x="24" y="66" text-anchor="middle" font-family="'Songti SC','Noto Serif SC','STSong',serif" font-size="26"
    fill="#f5ead8">脉</text>
</g>
</svg>
