<svg xmlns="http://www.w3.org/2000/svg" width="600" height="800" viewBox="0 0 600 800">
<defs>
  <radialGradient id="vg" cx="0.5" cy="0.42" r="0.75">
    <stop offset="0" stop-color="#241d15" stop-opacity="0.95"/>
    <stop offset="1" stop-color="#14100c" stop-opacity="0"/>
  </radialGradient>
</defs>
<rect width="600" height="800" fill="#15110d"/>
<rect width="600" height="800" fill="url(#vg)"/>
<g fill="none" stroke="#c9a86a" stroke-width="1.6" opacity="0.07" stroke-linecap="round">
<path d="M30 130 h23 a7 7 0 1 0 0 11 a5 5 0 1 1 -11 0"/>
<path d="M83 130 h23 a7 7 0 1 0 0 11 a5 5 0 1 1 -11 0"/>
<path d="M136 130 h26 a8 8 0 1 0 0 13 a6 6 0 1 1 -13 0"/>
<path d="M192 130 h23 a7 7 0 1 0 0 11 a5 5 0 1 1 -11 0"/>
<path d="M245 130 h26 a8 8 0 1 0 0 13 a6 6 0 1 1 -13 0"/>
<path d="M301 130 h18 a6 6 0 1 0 0 9 a4 4 0 1 1 -9 0"/>
<path d="M349 130 h27 a9 9 0 1 0 0 13 a6 6 0 1 1 -13 0"/>
<path d="M406 130 h27 a9 9 0 1 0 0 13 a6 6 0 1 1 -13 0"/>
<path d="M463 130 h16 a5 5 0 1 0 0 8 a4 4 0 1 1 -8 0"/>
<path d="M509 130 h17 a5 5 0 1 0 0 8 a4 4 0 1 1 -8 0"/>
<path d="M556 130 h22 a7 7 0 1 0 0 11 a5 5 0 1 1 -11 0"/>
<path d="M64 200 h22 a7 7 0 1 0 0 11 a5 5 0 1 1 -11 0"/>
<path d="M116 200 h18 a6 6 0 1 0 0 9 a4 4 0 1 1 -9 0"/>
<path d="M164 200 h24 a8 8 0 1 0 0 12 a6 6 0 1 1 -12 0"/>
<path d="M218 200 h20 a6 6 0 1 0 0 10 a5 5 0 1 1 -10 0"/>
<path d="M268 200 h20 a6 6 0 1 0 0 10 a5 5 0 1 1 -10 0"/>
<path d="M318 200 h27 a9 9 0 1 0 0 13 a6 6 0 1 1 -13 0"/>
<path d="M375 200 h24 a8 8 0 1 0 0 12 a6 6 0 1 1 -12 0"/>
<path d="M429 200 h19 a6 6 0 1 0 0 9 a4 4 0 1 1 -9 0"/>
<path d="M478 200 h22 a7 7 0 1 0 0 11 a5 5 0 1 1 -11 0"/>
<path d="M530 200 h26 a8 8 0 1 0 0 13 a6 6 0 1 1 -13 0"/>
<path d="M30 270 h26 a8 8 0 1 0 0 13 a6 6 0 1 1 -13 0"/>
<path d="M86 270 h25 a8 8 0 1 0 0 12 a6 6 0 1 1 -12 0"/>
<path d="M141 270 h22 a7 7 0 1 0 0 11 a5 5 0 1 1 -11 0"/>
<path d="M193 270 h25 a8 8 0 1 0 0 12 a6 6 0 1 1 -12 0"/>
<path d="M248 270 h20 a6 6 0 1 0 0 10 a5 5 0 1 1 -10 0"/>
<path d="M298 270 h18 a6 6 0 1 0 0 9 a4 4 0 1 1 -9 0"/>
<path d="M346 270 h21 a7 7 0 1 0 0 10 a5 5 0 1 1 -10 0"/>
<path d="M397 270 h24 a8 8 0 1 0 0 12 a6 6 0 1 1 -12 0"/>
<path d="M451 270 h25 a8 8 0 1 0 0 12 a6 6 0 1 1 -12 0"/>
<path d="M506 270 h27 a9 9 0 1 0 0 13 a6 6 0 1 1 -13 0"/>
<path d="M64 340 h22 a7 7 0 1 0 0 11 a5 5 0 1 1 -11 0"/>
<path d="M116 340 h23 a7 7 0 1 0 0 11 a5 5 0 1 1 -11 0"/>
<path d="M169 340 h18 a6 6 0 1 0 0 9 a4 4 0 1 1 -9 0"/>
<path d="M217 340 h23 a7 7 0 1 0 0 11 a5 5 0 1 1 -11 0"/>
<path d="M270 340 h17 a5 5 0 1 0 0 8 a4 4 0 1 1 -8 0"/>
<path d="M317 340 h22 a7 7 0 1 0 0 11 a5 5 0 1 1 -11 0"/>
<path d="M369 340 h22 a7 7 0 1 0 0 11 a5 5 0 1 1 -11 0"/>
<path d="M421 340 h27 a9 9 0 1 0 0 13 a6 6 0 1 1 -13 0"/>
<path d="M478 340 h27 a9 9 0 1 0 0 13 a6 6 0 1 1 -13 0"/>
<path d="M535 340 h19 a6 6 0 1 0 0 9 a4 4 0 1 1 -9 0"/>
<path d="M30 410 h16 a5 5 0 1 0 0 8 a4 4 0 1 1 -8 0"/>
<path d="M76 410 h17 a5 5 0 1 0 0 8 a4 4 0 1 1 -8 0"/>
<path d="M123 410 h20 a6 6 0 1 0 0 10 a5 5 0 1 1 -10 0"/>
<path d="M173 410 h24 a8 8 0 1 0 0 12 a6 6 0 1 1 -12 0"/>
<path d="M227 410 h21 a7 7 0 1 0 0 10 a5 5 0 1 1 -10 0"/>
<path d="M278 410 h19 a6 6 0 1 0 0 9 a4 4 0 1 1 -9 0"/>
<path d="M327 410 h26 a8 8 0 1 0 0 13 a6 6 0 1 1 -13 0"/>
<path d="M383 410 h20 a6 6 0 1 0 0 10 a5 5 0 1 1 -10 0"/>
<path d="M433 410 h24 a8 8 0 1 0 0 12 a6 6 0 1 1 -12 0"/>
<path d="M487 410 h21 a7 7 0 1 0 0 10 a5 5 0 1 1 -10 0"/>
<path d="M538 410 h20 a6 6 0 1 0 0 10 a5 5 0 1 1 -10 0"/>
<path d="M64 480 h16 a5 5 0 1 0 0 8 a4 4 0 1 1 -8 0"/>
<path d="M110 480 h16 a5 5 0 1 0 0 8 a4 4 0 1 1 -8 0"/>
<path d="M156 480 h25 a8 8 0 1 0 0 12 a6 6 0 1 1 -12 0"/>
<path d="M211 480 h26 a8 8 0 1 0 0 13 a6 6 0 1 1 -13 0"/>
<path d="M267 480 h17 a5 5 0 1 0 0 8 a4 4 0 1 1 -8 0"/>
<path d="M314 480 h22 a7 7 0 1 0 0 11 a5 5 0 1 1 -11 0"/>
<path d="M366 480 h18 a6 6 0 1 0 0 9 a4 4 0 1 1 -9 0"/>
<path d="M414 480 h25 a8 8 0 1 0 0 12 a6 6 0 1 1 -12 0"/>
<path d="M469 480 h23 a7 7 0 1 0 0 11 a5 5 0 1 1 -11 0"/>
<path d="M522 480 h27 a9 9 0 1 0 0 13 a6 6 0 1 1 -13 0"/>
<path d="M30 550 h18 a6 6 0 1 0 0 9 a4 4 0 1 1 -9 0"/>
<path d="M78 550 h18 a6 6 0 1 0 0 9 a4 4 0 1 1 -9 0"/>
<path d="M126 550 h21 a7 7 0 1 0 0 10 a5 5 0 1 1 -10 0"/>
<path d="M177 550 h19 a6 6 0 1 0 0 9 a4 4 0 1 1 -9 0"/>
<path d="M226 550 h22 a7 7 0 1 0 0 11 a5 5 0 1 1 -11 0"/>
<path d="M278 550 h26 a8 8 0 1 0 0 13 a6 6 0 1 1 -13 0"/>
<path d="M334 550 h27 a9 9 0 1 0 0 13 a6 6 0 1 1 -13 0"/>
<path d="M391 550 h21 a7 7 0 1 0 0 10 a5 5 0 1 1 -10 0"/>
<path d="M442 550 h21 a7 7 0 1 0 0 10 a5 5 0 1 1 -10 0"/>
<path d="M493 550 h20 a6 6 0 1 0 0 10 a5 5 0 1 1 -10 0"/>
<path d="M543 550 h20 a6 6 0 1 0 0 10 a5 5 0 1 1 -10 0"/>
<path d="M64 620 h24 a8 8 0 1 0 0 12 a6 6 0 1 1 -12 0"/>
<path d="M118 620 h16 a5 5 0 1 0 0 8 a4 4 0 1 1 -8 0"/>
<path d="M164 620 h17 a5 5 0 1 0 0 8 a4 4 0 1 1 -8 0"/>
<path d="M211 620 h22 a7 7 0 1 0 0 11 a5 5 0 1 1 -11 0"/>
<path d="M263 620 h17 a5 5 0 1 0 0 8 a4 4 0 1 1 -8 0"/>
<path d="M310 620 h18 a6 6 0 1 0 0 9 a4 4 0 1 1 -9 0"/>
<path d="M358 620 h23 a7 7 0 1 0 0 11 a5 5 0 1 1 -11 0"/>
<path d="M411 620 h24 a8 8 0 1 0 0 12 a6 6 0 1 1 -12 0"/>
<path d="M465 620 h16 a5 5 0 1 0 0 8 a4 4 0 1 1 -8 0"/>
<path d="M511 620 h20 a6 6 0 1 0 0 10 a5 5 0 1 1 -10 0"/>
<path d="M30 690 h23 a7 7 0 1 0 0 11 a5 5 0 1 1 -11 0"/>
<path d="M83 690 h23 a7 7 0 1 0 0 11 a5 5 0 1 1 -11 0"/>
<path d="M136 690 h16 a5 5 0 1 0 0 8 a4 4 0 1 1 -8 0"/>
<path d="M182 690 h26 a8 8 0 1 0 0 13 a6 6 0 1 1 -13 0"/>
<path d="M238 690 h27 a9 9 0 1 0 0 13 a6 6 0 1 1 -13 0"/>
<path d="M295 690 h26 a8 8 0 1 0 0 13 a6 6 0 1 1 -13 0"/>
<path d="M351 690 h16 a5 5 0 1 0 0 8 a4 4 0 1 1 -8 0"/>
<path d="M397 690 h22 a7 7 0 1 0 0 11 a5 5 0 1 1 -11 0"/>
<path d="M449 690 h26 a8 8 0 1 0 0 13 a6 6 0 1 1 -13 0"/>
<path d="M505 690 h19 a6 6 0 1 0 0 9 a4 4 0 1 1 -9 0"/>
<path d="M554 690 h20 a6 6 0 1 0 0 10 a5 5 0 1 1 -10 0"/>
</g>
<g fill="none" stroke="#a08a52" opacity="0.55" stroke-width="1.6">
  <rect x="20" y="20" width="560" height="760"/>
</g>
<g fill="none" stroke="#a08a52" opacity="0.22" stroke-width="1">
  <rect x="30" y="30" width="540" height="740"/>
</g>
<g fill="none" stroke="#a08a52" opacity="0.7" stroke-width="2" stroke-linejoin="miter">
  <path d="M44 74 V44 H74 M52 74 V52 H74"/>
  <path d="M556 74 V44 H526 M548 74 V52 H526"/>
  <path d="M44 726 V756 H74 M52 726 V748 H74"/>
  <path d="M556 726 V756 H526 M548 726 V748 H526"/>
</g>
<text x="300" y="470" text-anchor="middle" font-family="'Songti SC','Noto Serif SC','STSong',serif" font-size="380"
  fill="#e8dcc0" opacity="0.05">麒</text>
<text x="300" y="132" text-anchor="middle" font-family="'Songti SC','Noto Serif SC','STSong',serif" font-size="22"
  fill="#9a8a66" letter-spacing="8">传统舞蹈</text>
<g font-family="'Songti SC','Noto Serif SC','STSong',serif">
<text font-family="'Songti SC','Noto Serif SC','STSong',serif" x="300" y="418" text-anchor="middle" font-size="76" fill="#eadfc4" letter-spacing="6">麒麟舞</text>
<text x="300" y="470" text-anchor="middle" font-size="24" fill="#8f7f5c"
  letter-spacing="4">河北省</text>
</g>
<g transform="translate(276 668)">
  <rect width="48" height="76" rx="6" fill="#9e3b2c"/>
  <text x="24" y="34" text-anchor="middle" font-family="'Songti SC','Noto Serif SC','STSong',serif" font-size="26"
    fill="#f5ead8">承</text>
  <text x="24" y="66" text-anchor="middle" font-family="'Songti SC','Noto Serif SC','STSong',serif" font-size="26"
    fill="#f5ead8">脉</text>
</g>
</svg>
