<svg xmlns="http://www.w3.org/2000/svg" width="600" height="800" viewBox="0 0 600 800">
<defs>
  <radialGradient id="vg" cx="0.5" cy="0.42" r="0.75">
    <stop offset="0" stop-color="#241d15" stop-opacity="0.95"/>
    <stop offset="1" stop-color="#14100c" stop-opacity="0"/>
  </radialGradient>
</defs>
<rect width="600" height="800" fill="#15110d"/>
<rect width="600" height="800" fill="url(#vg)"/>
<g fill="none" stroke="#c9a86a" stroke-width="1.6" opacity="0.07" stroke-linecap="round">
<path d="M30 130 h26 a8 8 0 1 0 0 13 a6 6 0 1 1 -13 0"/>
<path d="M86 130 h26 a8 8 0 1 0 0 13 a6 6 0 1 1 -13 0"/>
<path d="M142 130 h18 a6 6 0 1 0 0 9 a4 4 0 1 1 -9 0"/>
<path d="M190 130 h24 a8 8 0 1 0 0 12 a6 6 0 1 1 -12 0"/>
<path d="M244 130 h21 a7 7 0 1 0 0 10 a5 5 0 1 1 -10 0"/>
<path d="M295 130 h21 a7 7 0 1 0 0 10 a5 5 0 1 1 -10 0"/>
<path d="M346 130 h26 a8 8 0 1 0 0 13 a6 6 0 1 1 -13 0"/>
<path d="M402 130 h20 a6 6 0 1 0 0 10 a5 5 0 1 1 -10 0"/>
<path d="M452 130 h23 a7 7 0 1 0 0 11 a5 5 0 1 1 -11 0"/>
<path d="M505 130 h26 a8 8 0 1 0 0 13 a6 6 0 1 1 -13 0"/>
<path d="M64 200 h19 a6 6 0 1 0 0 9 a4 4 0 1 1 -9 0"/>
<path d="M113 200 h24 a8 8 0 1 0 0 12 a6 6 0 1 1 -12 0"/>
<path d="M167 200 h20 a6 6 0 1 0 0 10 a5 5 0 1 1 -10 0"/>
<path d="M217 200 h20 a6 6 0 1 0 0 10 a5 5 0 1 1 -10 0"/>
<path d="M267 200 h17 a5 5 0 1 0 0 8 a4 4 0 1 1 -8 0"/>
<path d="M314 200 h18 a6 6 0 1 0 0 9 a4 4 0 1 1 -9 0"/>
<path d="M362 200 h25 a8 8 0 1 0 0 12 a6 6 0 1 1 -12 0"/>
<path d="M417 200 h21 a7 7 0 1 0 0 10 a5 5 0 1 1 -10 0"/>
<path d="M468 200 h27 a9 9 0 1 0 0 13 a6 6 0 1 1 -13 0"/>
<path d="M525 200 h22 a7 7 0 1 0 0 11 a5 5 0 1 1 -11 0"/>
<path d="M30 270 h18 a6 6 0 1 0 0 9 a4 4 0 1 1 -9 0"/>
<path d="M78 270 h26 a8 8 0 1 0 0 13 a6 6 0 1 1 -13 0"/>
<path d="M134 270 h23 a7 7 0 1 0 0 11 a5 5 0 1 1 -11 0"/>
<path d="M187 270 h22 a7 7 0 1 0 0 11 a5 5 0 1 1 -11 0"/>
<path d="M239 270 h19 a6 6 0 1 0 0 9 a4 4 0 1 1 -9 0"/>
<path d="M288 270 h24 a8 8 0 1 0 0 12 a6 6 0 1 1 -12 0"/>
<path d="M342 270 h21 a7 7 0 1 0 0 10 a5 5 0 1 1 -10 0"/>
<path d="M393 270 h22 a7 7 0 1 0 0 11 a5 5 0 1 1 -11 0"/>
<path d="M445 270 h23 a7 7 0 1 0 0 11 a5 5 0 1 1 -11 0"/>
<path d="M498 270 h18 a6 6 0 1 0 0 9 a4 4 0 1 1 -9 0"/>
<path d="M546 270 h20 a6 6 0 1 0 0 10 a5 5 0 1 1 -10 0"/>
<path d="M64 340 h24 a8 8 0 1 0 0 12 a6 6 0 1 1 -12 0"/>
<path d="M118 340 h16 a5 5 0 1 0 0 8 a4 4 0 1 1 -8 0"/>
<path d="M164 340 h21 a7 7 0 1 0 0 10 a5 5 0 1 1 -10 0"/>
<path d="M215 340 h26 a8 8 0 1 0 0 13 a6 6 0 1 1 -13 0"/>
<path d="M271 340 h20 a6 6 0 1 0 0 10 a5 5 0 1 1 -10 0"/>
<path d="M321 340 h25 a8 8 0 1 0 0 12 a6 6 0 1 1 -12 0"/>
<path d="M376 340 h22 a7 7 0 1 0 0 11 a5 5 0 1 1 -11 0"/>
<path d="M428 340 h23 a7 7 0 1 0 0 11 a5 5 0 1 1 -11 0"/>
<path d="M481 340 h23 a7 7 0 1 0 0 11 a5 5 0 1 1 -11 0"/>
<path d="M534 340 h19 a6 6 0 1 0 0 9 a4 4 0 1 1 -9 0"/>
<path d="M30 410 h24 a8 8 0 1 0 0 12 a6 6 0 1 1 -12 0"/>
<path d="M84 410 h22 a7 7 0 1 0 0 11 a5 5 0 1 1 -11 0"/>
<path d="M136 410 h19 a6 6 0 1 0 0 9 a4 4 0 1 1 -9 0"/>
<path d="M185 410 h18 a6 6 0 1 0 0 9 a4 4 0 1 1 -9 0"/>
<path d="M233 410 h18 a6 6 0 1 0 0 9 a4 4 0 1 1 -9 0"/>
<path d="M281 410 h25 a8 8 0 1 0 0 12 a6 6 0 1 1 -12 0"/>
<path d="M336 410 h21 a7 7 0 1 0 0 10 a5 5 0 1 1 -10 0"/>
<path d="M387 410 h24 a8 8 0 1 0 0 12 a6 6 0 1 1 -12 0"/>
<path d="M441 410 h22 a7 7 0 1 0 0 11 a5 5 0 1 1 -11 0"/>
<path d="M493 410 h22 a7 7 0 1 0 0 11 a5 5 0 1 1 -11 0"/>
<path d="M545 410 h22 a7 7 0 1 0 0 11 a5 5 0 1 1 -11 0"/>
<path d="M64 480 h16 a5 5 0 1 0 0 8 a4 4 0 1 1 -8 0"/>
<path d="M110 480 h16 a5 5 0 1 0 0 8 a4 4 0 1 1 -8 0"/>
<path d="M156 480 h18 a6 6 0 1 0 0 9 a4 4 0 1 1 -9 0"/>
<path d="M204 480 h17 a5 5 0 1 0 0 8 a4 4 0 1 1 -8 0"/>
<path d="M251 480 h24 a8 8 0 1 0 0 12 a6 6 0 1 1 -12 0"/>
<path d="M305 480 h18 a6 6 0 1 0 0 9 a4 4 0 1 1 -9 0"/>
<path d="M353 480 h18 a6 6 0 1 0 0 9 a4 4 0 1 1 -9 0"/>
<path d="M401 480 h26 a8 8 0 1 0 0 13 a6 6 0 1 1 -13 0"/>
<path d="M457 480 h23 a7 7 0 1 0 0 11 a5 5 0 1 1 -11 0"/>
<path d="M510 480 h25 a8 8 0 1 0 0 12 a6 6 0 1 1 -12 0"/>
<path d="M30 550 h19 a6 6 0 1 0 0 9 a4 4 0 1 1 -9 0"/>
<path d="M79 550 h16 a5 5 0 1 0 0 8 a4 4 0 1 1 -8 0"/>
<path d="M125 550 h16 a5 5 0 1 0 0 8 a4 4 0 1 1 -8 0"/>
<path d="M171 550 h16 a5 5 0 1 0 0 8 a4 4 0 1 1 -8 0"/>
<path d="M217 550 h23 a7 7 0 1 0 0 11 a5 5 0 1 1 -11 0"/>
<path d="M270 550 h24 a8 8 0 1 0 0 12 a6 6 0 1 1 -12 0"/>
<path d="M324 550 h24 a8 8 0 1 0 0 12 a6 6 0 1 1 -12 0"/>
<path d="M378 550 h20 a6 6 0 1 0 0 10 a5 5 0 1 1 -10 0"/>
<path d="M428 550 h27 a9 9 0 1 0 0 13 a6 6 0 1 1 -13 0"/>
<path d="M485 550 h25 a8 8 0 1 0 0 12 a6 6 0 1 1 -12 0"/>
<path d="M540 550 h18 a6 6 0 1 0 0 9 a4 4 0 1 1 -9 0"/>
<path d="M64 620 h23 a7 7 0 1 0 0 11 a5 5 0 1 1 -11 0"/>
<path d="M117 620 h17 a5 5 0 1 0 0 8 a4 4 0 1 1 -8 0"/>
<path d="M164 620 h19 a6 6 0 1 0 0 9 a4 4 0 1 1 -9 0"/>
<path d="M213 620 h17 a5 5 0 1 0 0 8 a4 4 0 1 1 -8 0"/>
<path d="M260 620 h21 a7 7 0 1 0 0 10 a5 5 0 1 1 -10 0"/>
<path d="M311 620 h26 a8 8 0 1 0 0 13 a6 6 0 1 1 -13 0"/>
<path d="M367 620 h21 a7 7 0 1 0 0 10 a5 5 0 1 1 -10 0"/>
<path d="M418 620 h20 a6 6 0 1 0 0 10 a5 5 0 1 1 -10 0"/>
<path d="M468 620 h25 a8 8 0 1 0 0 12 a6 6 0 1 1 -12 0"/>
<path d="M523 620 h26 a8 8 0 1 0 0 13 a6 6 0 1 1 -13 0"/>
<path d="M30 690 h22 a7 7 0 1 0 0 11 a5 5 0 1 1 -11 0"/>
<path d="M82 690 h25 a8 8 0 1 0 0 12 a6 6 0 1 1 -12 0"/>
<path d="M137 690 h26 a8 8 0 1 0 0 13 a6 6 0 1 1 -13 0"/>
<path d="M193 690 h25 a8 8 0 1 0 0 12 a6 6 0 1 1 -12 0"/>
<path d="M248 690 h18 a6 6 0 1 0 0 9 a4 4 0 1 1 -9 0"/>
<path d="M296 690 h18 a6 6 0 1 0 0 9 a4 4 0 1 1 -9 0"/>
<path d="M344 690 h19 a6 6 0 1 0 0 9 a4 4 0 1 1 -9 0"/>
<path d="M393 690 h24 a8 8 0 1 0 0 12 a6 6 0 1 1 -12 0"/>
<path d="M447 690 h17 a5 5 0 1 0 0 8 a4 4 0 1 1 -8 0"/>
<path d="M494 690 h27 a9 9 0 1 0 0 13 a6 6 0 1 1 -13 0"/>
<path d="M551 690 h18 a6 6 0 1 0 0 9 a4 4 0 1 1 -9 0"/>
</g>
<g fill="none" stroke="#a08a52" opacity="0.55" stroke-width="1.6">
  <rect x="20" y="20" width="560" height="760"/>
</g>
<g fill="none" stroke="#a08a52" opacity="0.22" stroke-width="1">
  <rect x="30" y="30" width="540" height="740"/>
</g>
<g fill="none" stroke="#a08a52" opacity="0.7" stroke-width="2" stroke-linejoin="miter">
  <path d="M44 74 V44 H74 M52 74 V52 H74"/>
  <path d="M556 74 V44 H526 M548 74 V52 H526"/>
  <path d="M44 726 V756 H74 M52 726 V748 H74"/>
  <path d="M556 726 V756 H526 M548 726 V748 H526"/>
</g>
<text x="300" y="470" text-anchor="middle" font-family="'Songti SC','Noto Serif SC','STSong',serif" font-size="380"
  fill="#e8dcc0" opacity="0.05">仡</text>
<text x="300" y="132" text-anchor="middle" font-family="'Songti SC','Noto Serif SC','STSong',serif" font-size="22"
  fill="#9a8a66" letter-spacing="8">传统音乐</text>
<g font-family="'Songti SC','Noto Serif SC','STSong',serif">
<text font-family="'Songti SC','Noto Serif SC','STSong',serif" x="300" y="418" text-anchor="middle" font-size="64" fill="#eadfc4" letter-spacing="6">仡佬族民歌</text>
<text x="300" y="470" text-anchor="middle" font-size="24" fill="#8f7f5c"
  letter-spacing="4">贵州省</text>
</g>
<g transform="translate(276 668)">
  <rect width="48" height="76" rx="6" fill="#9e3b2c"/>
  <text x="24" y="34" text-anchor="middle" font-family="'Songti SC','Noto Serif SC','STSong',serif" font-size="26"
    fill="#f5ead8">承</text>
  <text x="24" y="66" text-anchor="middle" font-family="'Songti SC','Noto Serif SC','STSong',serif" font-size="26"
    fill="#f5ead8">脉</text>
</g>
</svg>
