<svg xmlns="http://www.w3.org/2000/svg" width="600" height="800" viewBox="0 0 600 800">
<defs>
  <radialGradient id="vg" cx="0.5" cy="0.42" r="0.75">
    <stop offset="0" stop-color="#241d15" stop-opacity="0.95"/>
    <stop offset="1" stop-color="#14100c" stop-opacity="0"/>
  </radialGradient>
</defs>
<rect width="600" height="800" fill="#15110d"/>
<rect width="600" height="800" fill="url(#vg)"/>
<g fill="none" stroke="#c9a86a" stroke-width="1.6" opacity="0.07" stroke-linecap="round">
<path d="M30 130 h19 a6 6 0 1 0 0 9 a4 4 0 1 1 -9 0"/>
<path d="M79 130 h17 a5 5 0 1 0 0 8 a4 4 0 1 1 -8 0"/>
<path d="M126 130 h19 a6 6 0 1 0 0 9 a4 4 0 1 1 -9 0"/>
<path d="M175 130 h20 a6 6 0 1 0 0 10 a5 5 0 1 1 -10 0"/>
<path d="M225 130 h18 a6 6 0 1 0 0 9 a4 4 0 1 1 -9 0"/>
<path d="M273 130 h18 a6 6 0 1 0 0 9 a4 4 0 1 1 -9 0"/>
<path d="M321 130 h19 a6 6 0 1 0 0 9 a4 4 0 1 1 -9 0"/>
<path d="M370 130 h20 a6 6 0 1 0 0 10 a5 5 0 1 1 -10 0"/>
<path d="M420 130 h21 a7 7 0 1 0 0 10 a5 5 0 1 1 -10 0"/>
<path d="M471 130 h22 a7 7 0 1 0 0 11 a5 5 0 1 1 -11 0"/>
<path d="M523 130 h24 a8 8 0 1 0 0 12 a6 6 0 1 1 -12 0"/>
<path d="M64 200 h21 a7 7 0 1 0 0 10 a5 5 0 1 1 -10 0"/>
<path d="M115 200 h20 a6 6 0 1 0 0 10 a5 5 0 1 1 -10 0"/>
<path d="M165 200 h22 a7 7 0 1 0 0 11 a5 5 0 1 1 -11 0"/>
<path d="M217 200 h25 a8 8 0 1 0 0 12 a6 6 0 1 1 -12 0"/>
<path d="M272 200 h26 a8 8 0 1 0 0 13 a6 6 0 1 1 -13 0"/>
<path d="M328 200 h27 a9 9 0 1 0 0 13 a6 6 0 1 1 -13 0"/>
<path d="M385 200 h16 a5 5 0 1 0 0 8 a4 4 0 1 1 -8 0"/>
<path d="M431 200 h24 a8 8 0 1 0 0 12 a6 6 0 1 1 -12 0"/>
<path d="M485 200 h18 a6 6 0 1 0 0 9 a4 4 0 1 1 -9 0"/>
<path d="M533 200 h20 a6 6 0 1 0 0 10 a5 5 0 1 1 -10 0"/>
<path d="M30 270 h26 a8 8 0 1 0 0 13 a6 6 0 1 1 -13 0"/>
<path d="M86 270 h18 a6 6 0 1 0 0 9 a4 4 0 1 1 -9 0"/>
<path d="M134 270 h17 a5 5 0 1 0 0 8 a4 4 0 1 1 -8 0"/>
<path d="M181 270 h25 a8 8 0 1 0 0 12 a6 6 0 1 1 -12 0"/>
<path d="M236 270 h16 a5 5 0 1 0 0 8 a4 4 0 1 1 -8 0"/>
<path d="M282 270 h19 a6 6 0 1 0 0 9 a4 4 0 1 1 -9 0"/>
<path d="M331 270 h16 a5 5 0 1 0 0 8 a4 4 0 1 1 -8 0"/>
<path d="M377 270 h26 a8 8 0 1 0 0 13 a6 6 0 1 1 -13 0"/>
<path d="M433 270 h21 a7 7 0 1 0 0 10 a5 5 0 1 1 -10 0"/>
<path d="M484 270 h18 a6 6 0 1 0 0 9 a4 4 0 1 1 -9 0"/>
<path d="M532 270 h19 a6 6 0 1 0 0 9 a4 4 0 1 1 -9 0"/>
<path d="M64 340 h25 a8 8 0 1 0 0 12 a6 6 0 1 1 -12 0"/>
<path d="M119 340 h26 a8 8 0 1 0 0 13 a6 6 0 1 1 -13 0"/>
<path d="M175 340 h27 a9 9 0 1 0 0 13 a6 6 0 1 1 -13 0"/>
<path d="M232 340 h26 a8 8 0 1 0 0 13 a6 6 0 1 1 -13 0"/>
<path d="M288 340 h26 a8 8 0 1 0 0 13 a6 6 0 1 1 -13 0"/>
<path d="M344 340 h25 a8 8 0 1 0 0 12 a6 6 0 1 1 -12 0"/>
<path d="M399 340 h24 a8 8 0 1 0 0 12 a6 6 0 1 1 -12 0"/>
<path d="M453 340 h21 a7 7 0 1 0 0 10 a5 5 0 1 1 -10 0"/>
<path d="M504 340 h19 a6 6 0 1 0 0 9 a4 4 0 1 1 -9 0"/>
<path d="M553 340 h24 a8 8 0 1 0 0 12 a6 6 0 1 1 -12 0"/>
<path d="M30 410 h16 a5 5 0 1 0 0 8 a4 4 0 1 1 -8 0"/>
<path d="M76 410 h25 a8 8 0 1 0 0 12 a6 6 0 1 1 -12 0"/>
<path d="M131 410 h18 a6 6 0 1 0 0 9 a4 4 0 1 1 -9 0"/>
<path d="M179 410 h26 a8 8 0 1 0 0 13 a6 6 0 1 1 -13 0"/>
<path d="M235 410 h26 a8 8 0 1 0 0 13 a6 6 0 1 1 -13 0"/>
<path d="M291 410 h21 a7 7 0 1 0 0 10 a5 5 0 1 1 -10 0"/>
<path d="M342 410 h18 a6 6 0 1 0 0 9 a4 4 0 1 1 -9 0"/>
<path d="M390 410 h17 a5 5 0 1 0 0 8 a4 4 0 1 1 -8 0"/>
<path d="M437 410 h25 a8 8 0 1 0 0 12 a6 6 0 1 1 -12 0"/>
<path d="M492 410 h23 a7 7 0 1 0 0 11 a5 5 0 1 1 -11 0"/>
<path d="M545 410 h21 a7 7 0 1 0 0 10 a5 5 0 1 1 -10 0"/>
<path d="M64 480 h24 a8 8 0 1 0 0 12 a6 6 0 1 1 -12 0"/>
<path d="M118 480 h17 a5 5 0 1 0 0 8 a4 4 0 1 1 -8 0"/>
<path d="M165 480 h25 a8 8 0 1 0 0 12 a6 6 0 1 1 -12 0"/>
<path d="M220 480 h25 a8 8 0 1 0 0 12 a6 6 0 1 1 -12 0"/>
<path d="M275 480 h23 a7 7 0 1 0 0 11 a5 5 0 1 1 -11 0"/>
<path d="M328 480 h26 a8 8 0 1 0 0 13 a6 6 0 1 1 -13 0"/>
<path d="M384 480 h19 a6 6 0 1 0 0 9 a4 4 0 1 1 -9 0"/>
<path d="M433 480 h26 a8 8 0 1 0 0 13 a6 6 0 1 1 -13 0"/>
<path d="M489 480 h22 a7 7 0 1 0 0 11 a5 5 0 1 1 -11 0"/>
<path d="M541 480 h19 a6 6 0 1 0 0 9 a4 4 0 1 1 -9 0"/>
<path d="M30 550 h19 a6 6 0 1 0 0 9 a4 4 0 1 1 -9 0"/>
<path d="M79 550 h17 a5 5 0 1 0 0 8 a4 4 0 1 1 -8 0"/>
<path d="M126 550 h22 a7 7 0 1 0 0 11 a5 5 0 1 1 -11 0"/>
<path d="M178 550 h26 a8 8 0 1 0 0 13 a6 6 0 1 1 -13 0"/>
<path d="M234 550 h25 a8 8 0 1 0 0 12 a6 6 0 1 1 -12 0"/>
<path d="M289 550 h16 a5 5 0 1 0 0 8 a4 4 0 1 1 -8 0"/>
<path d="M335 550 h21 a7 7 0 1 0 0 10 a5 5 0 1 1 -10 0"/>
<path d="M386 550 h26 a8 8 0 1 0 0 13 a6 6 0 1 1 -13 0"/>
<path d="M442 550 h22 a7 7 0 1 0 0 11 a5 5 0 1 1 -11 0"/>
<path d="M494 550 h17 a5 5 0 1 0 0 8 a4 4 0 1 1 -8 0"/>
<path d="M541 550 h18 a6 6 0 1 0 0 9 a4 4 0 1 1 -9 0"/>
<path d="M64 620 h19 a6 6 0 1 0 0 9 a4 4 0 1 1 -9 0"/>
<path d="M113 620 h26 a8 8 0 1 0 0 13 a6 6 0 1 1 -13 0"/>
<path d="M169 620 h20 a6 6 0 1 0 0 10 a5 5 0 1 1 -10 0"/>
<path d="M219 620 h16 a5 5 0 1 0 0 8 a4 4 0 1 1 -8 0"/>
<path d="M265 620 h27 a9 9 0 1 0 0 13 a6 6 0 1 1 -13 0"/>
<path d="M322 620 h17 a5 5 0 1 0 0 8 a4 4 0 1 1 -8 0"/>
<path d="M369 620 h23 a7 7 0 1 0 0 11 a5 5 0 1 1 -11 0"/>
<path d="M422 620 h17 a5 5 0 1 0 0 8 a4 4 0 1 1 -8 0"/>
<path d="M469 620 h21 a7 7 0 1 0 0 10 a5 5 0 1 1 -10 0"/>
<path d="M520 620 h25 a8 8 0 1 0 0 12 a6 6 0 1 1 -12 0"/>
<path d="M30 690 h21 a7 7 0 1 0 0 10 a5 5 0 1 1 -10 0"/>
<path d="M81 690 h26 a8 8 0 1 0 0 13 a6 6 0 1 1 -13 0"/>
<path d="M137 690 h20 a6 6 0 1 0 0 10 a5 5 0 1 1 -10 0"/>
<path d="M187 690 h24 a8 8 0 1 0 0 12 a6 6 0 1 1 -12 0"/>
<path d="M241 690 h21 a7 7 0 1 0 0 10 a5 5 0 1 1 -10 0"/>
<path d="M292 690 h16 a5 5 0 1 0 0 8 a4 4 0 1 1 -8 0"/>
<path d="M338 690 h18 a6 6 0 1 0 0 9 a4 4 0 1 1 -9 0"/>
<path d="M386 690 h25 a8 8 0 1 0 0 12 a6 6 0 1 1 -12 0"/>
<path d="M441 690 h25 a8 8 0 1 0 0 12 a6 6 0 1 1 -12 0"/>
<path d="M496 690 h22 a7 7 0 1 0 0 11 a5 5 0 1 1 -11 0"/>
<path d="M548 690 h27 a9 9 0 1 0 0 13 a6 6 0 1 1 -13 0"/>
</g>
<g fill="none" stroke="#a08a52" opacity="0.55" stroke-width="1.6">
  <rect x="20" y="20" width="560" height="760"/>
</g>
<g fill="none" stroke="#a08a52" opacity="0.22" stroke-width="1">
  <rect x="30" y="30" width="540" height="740"/>
</g>
<g fill="none" stroke="#a08a52" opacity="0.7" stroke-width="2" stroke-linejoin="miter">
  <path d="M44 74 V44 H74 M52 74 V52 H74"/>
  <path d="M556 74 V44 H526 M548 74 V52 H526"/>
  <path d="M44 726 V756 H74 M52 726 V748 H74"/>
  <path d="M556 726 V756 H526 M548 726 V748 H526"/>
</g>
<text x="300" y="470" text-anchor="middle" font-family="'Songti SC','Noto Serif SC','STSong',serif" font-size="380"
  fill="#e8dcc0" opacity="0.05">庙</text>
<text x="300" y="132" text-anchor="middle" font-family="'Songti SC','Noto Serif SC','STSong',serif" font-size="22"
  fill="#9a8a66" letter-spacing="8">民俗</text>
<g font-family="'Songti SC','Noto Serif SC','STSong',serif">
<text font-family="'Songti SC','Noto Serif SC','STSong',serif" x="300" y="396" text-anchor="middle" font-size="56" fill="#eadfc4" letter-spacing="6">庙会（丫髻</text>
<text font-family="'Songti SC','Noto Serif SC','STSong',serif" x="300" y="466" text-anchor="middle" font-size="56" fill="#eadfc4" letter-spacing="6">山庙会）</text>
<text x="300" y="512" text-anchor="middle" font-size="24" fill="#8f7f5c"
  letter-spacing="4">北京市 · 明代形成</text>
</g>
<g transform="translate(276 668)">
  <rect width="48" height="76" rx="6" fill="#9e3b2c"/>
  <text x="24" y="34" text-anchor="middle" font-family="'Songti SC','Noto Serif SC','STSong',serif" font-size="26"
    fill="#f5ead8">承</text>
  <text x="24" y="66" text-anchor="middle" font-family="'Songti SC','Noto Serif SC','STSong',serif" font-size="26"
    fill="#f5ead8">脉</text>
</g>
</svg>
